<?xml version="1.0" encoding="utf-8" standalone="no"?>
<!DOCTYPE svg PUBLIC "-//W3C//DTD SVG 1.1//EN"
  "http://www.w3.org/Graphics/SVG/1.1/DTD/svg11.dtd">
<svg xmlns:xlink="http://www.w3.org/1999/xlink" width="426.96023pt" height="690.549375pt" viewBox="0 0 426.96023 690.549375" xmlns="http://www.w3.org/2000/svg" version="1.1">
 <metadata>
  <rdf:RDF xmlns:dc="http://purl.org/dc/elements/1.1/" xmlns:cc="http://creativecommons.org/ns#" xmlns:rdf="http://www.w3.org/1999/02/22-rdf-syntax-ns#">
   <cc:Work>
    <dc:type rdf:resource="http://purl.org/dc/dcmitype/StillImage"/>
    <dc:date>2025-09-29T00:24:33.519636</dc:date>
    <dc:format>image/svg+xml</dc:format>
    <dc:creator>
     <cc:Agent>
      <dc:title>Matplotlib v3.6.3, https://matplotlib.org/</dc:title>
     </cc:Agent>
    </dc:creator>
   </cc:Work>
  </rdf:RDF>
 </metadata>
 <defs>
  <style type="text/css">*{stroke-linejoin: round; stroke-linecap: butt}</style>
 </defs>
 <g id="figure_1">
  <g id="patch_1">
   <path d="M 0 690.549375 
L 426.96023 690.549375 
L 426.96023 0 
L 0 0 
z
" style="fill: #fef4e9"/>
  </g>
  <g id="axes_1">
   <g id="patch_2">
    <path d="M 139.157656 650.5575 
L 415.637656 650.5575 
L 415.637656 31.3575 
L 139.157656 31.3575 
z
" style="fill: #fef4e9"/>
   </g>
   <g id="matplotlib.axis_1">
    <g id="xtick_1">
     <g id="line2d_1">
      <path d="M 139.157656 650.5575 
L 139.157656 31.3575 
" clip-path="url(#p9a6b95bc85)" style="fill: none; stroke-dasharray: 2.22,0.96; stroke-dashoffset: 0; stroke: #2f4156; stroke-opacity: 0.25; stroke-width: 0.6"/>
     </g>
     <g id="line2d_2">
      <defs>
       <path id="m1849d84f4b" d="M 0 0 
L 0 -3.5 
" style="stroke: #2f4156; stroke-width: 0.8"/>
      </defs>
      <g>
       <use xlink:href="#m1849d84f4b" x="139.157656" y="650.5575" style="fill: #2f4156; stroke: #2f4156; stroke-width: 0.8"/>
      </g>
     </g>
     <g id="text_1">
      <!-- 0 -->
      <g style="fill: #2f4156" transform="translate(135.976406 661.655938) scale(0.1 -0.1)">
       <defs>
        <path id="DejaVuSans-30" d="M 2034 4250 
Q 1547 4250 1301 3770 
Q 1056 3291 1056 2328 
Q 1056 1369 1301 889 
Q 1547 409 2034 409 
Q 2525 409 2770 889 
Q 3016 1369 3016 2328 
Q 3016 3291 2770 3770 
Q 2525 4250 2034 4250 
z
M 2034 4750 
Q 2819 4750 3233 4129 
Q 3647 3509 3647 2328 
Q 3647 1150 3233 529 
Q 2819 -91 2034 -91 
Q 1250 -91 836 529 
Q 422 1150 422 2328 
Q 422 3509 836 4129 
Q 1250 4750 2034 4750 
z
" transform="scale(0.015625)"/>
       </defs>
       <use xlink:href="#DejaVuSans-30"/>
      </g>
     </g>
    </g>
    <g id="xtick_2">
     <g id="line2d_3">
      <path d="M 193.369421 650.5575 
L 193.369421 31.3575 
" clip-path="url(#p9a6b95bc85)" style="fill: none; stroke-dasharray: 2.22,0.96; stroke-dashoffset: 0; stroke: #2f4156; stroke-opacity: 0.25; stroke-width: 0.6"/>
     </g>
     <g id="line2d_4">
      <g>
       <use xlink:href="#m1849d84f4b" x="193.369421" y="650.5575" style="fill: #2f4156; stroke: #2f4156; stroke-width: 0.8"/>
      </g>
     </g>
     <g id="text_2">
      <!-- 20 -->
      <g style="fill: #2f4156" transform="translate(187.006921 661.655938) scale(0.1 -0.1)">
       <defs>
        <path id="DejaVuSans-32" d="M 1228 531 
L 3431 531 
L 3431 0 
L 469 0 
L 469 531 
Q 828 903 1448 1529 
Q 2069 2156 2228 2338 
Q 2531 2678 2651 2914 
Q 2772 3150 2772 3378 
Q 2772 3750 2511 3984 
Q 2250 4219 1831 4219 
Q 1534 4219 1204 4116 
Q 875 4013 500 3803 
L 500 4441 
Q 881 4594 1212 4672 
Q 1544 4750 1819 4750 
Q 2544 4750 2975 4387 
Q 3406 4025 3406 3419 
Q 3406 3131 3298 2873 
Q 3191 2616 2906 2266 
Q 2828 2175 2409 1742 
Q 1991 1309 1228 531 
z
" transform="scale(0.015625)"/>
       </defs>
       <use xlink:href="#DejaVuSans-32"/>
       <use xlink:href="#DejaVuSans-30" x="63.623047"/>
      </g>
     </g>
    </g>
    <g id="xtick_3">
     <g id="line2d_5">
      <path d="M 247.581186 650.5575 
L 247.581186 31.3575 
" clip-path="url(#p9a6b95bc85)" style="fill: none; stroke-dasharray: 2.22,0.96; stroke-dashoffset: 0; stroke: #2f4156; stroke-opacity: 0.25; stroke-width: 0.6"/>
     </g>
     <g id="line2d_6">
      <g>
       <use xlink:href="#m1849d84f4b" x="247.581186" y="650.5575" style="fill: #2f4156; stroke: #2f4156; stroke-width: 0.8"/>
      </g>
     </g>
     <g id="text_3">
      <!-- 40 -->
      <g style="fill: #2f4156" transform="translate(241.218686 661.655938) scale(0.1 -0.1)">
       <defs>
        <path id="DejaVuSans-34" d="M 2419 4116 
L 825 1625 
L 2419 1625 
L 2419 4116 
z
M 2253 4666 
L 3047 4666 
L 3047 1625 
L 3713 1625 
L 3713 1100 
L 3047 1100 
L 3047 0 
L 2419 0 
L 2419 1100 
L 313 1100 
L 313 1709 
L 2253 4666 
z
" transform="scale(0.015625)"/>
       </defs>
       <use xlink:href="#DejaVuSans-34"/>
       <use xlink:href="#DejaVuSans-30" x="63.623047"/>
      </g>
     </g>
    </g>
    <g id="xtick_4">
     <g id="line2d_7">
      <path d="M 301.79295 650.5575 
L 301.79295 31.3575 
" clip-path="url(#p9a6b95bc85)" style="fill: none; stroke-dasharray: 2.22,0.96; stroke-dashoffset: 0; stroke: #2f4156; stroke-opacity: 0.25; stroke-width: 0.6"/>
     </g>
     <g id="line2d_8">
      <g>
       <use xlink:href="#m1849d84f4b" x="301.79295" y="650.5575" style="fill: #2f4156; stroke: #2f4156; stroke-width: 0.8"/>
      </g>
     </g>
     <g id="text_4">
      <!-- 60 -->
      <g style="fill: #2f4156" transform="translate(295.43045 661.655938) scale(0.1 -0.1)">
       <defs>
        <path id="DejaVuSans-36" d="M 2113 2584 
Q 1688 2584 1439 2293 
Q 1191 2003 1191 1497 
Q 1191 994 1439 701 
Q 1688 409 2113 409 
Q 2538 409 2786 701 
Q 3034 994 3034 1497 
Q 3034 2003 2786 2293 
Q 2538 2584 2113 2584 
z
M 3366 4563 
L 3366 3988 
Q 3128 4100 2886 4159 
Q 2644 4219 2406 4219 
Q 1781 4219 1451 3797 
Q 1122 3375 1075 2522 
Q 1259 2794 1537 2939 
Q 1816 3084 2150 3084 
Q 2853 3084 3261 2657 
Q 3669 2231 3669 1497 
Q 3669 778 3244 343 
Q 2819 -91 2113 -91 
Q 1303 -91 875 529 
Q 447 1150 447 2328 
Q 447 3434 972 4092 
Q 1497 4750 2381 4750 
Q 2619 4750 2861 4703 
Q 3103 4656 3366 4563 
z
" transform="scale(0.015625)"/>
       </defs>
       <use xlink:href="#DejaVuSans-36"/>
       <use xlink:href="#DejaVuSans-30" x="63.623047"/>
      </g>
     </g>
    </g>
    <g id="xtick_5">
     <g id="line2d_9">
      <path d="M 356.004715 650.5575 
L 356.004715 31.3575 
" clip-path="url(#p9a6b95bc85)" style="fill: none; stroke-dasharray: 2.22,0.96; stroke-dashoffset: 0; stroke: #2f4156; stroke-opacity: 0.25; stroke-width: 0.6"/>
     </g>
     <g id="line2d_10">
      <g>
       <use xlink:href="#m1849d84f4b" x="356.004715" y="650.5575" style="fill: #2f4156; stroke: #2f4156; stroke-width: 0.8"/>
      </g>
     </g>
     <g id="text_5">
      <!-- 80 -->
      <g style="fill: #2f4156" transform="translate(349.642215 661.655938) scale(0.1 -0.1)">
       <defs>
        <path id="DejaVuSans-38" d="M 2034 2216 
Q 1584 2216 1326 1975 
Q 1069 1734 1069 1313 
Q 1069 891 1326 650 
Q 1584 409 2034 409 
Q 2484 409 2743 651 
Q 3003 894 3003 1313 
Q 3003 1734 2745 1975 
Q 2488 2216 2034 2216 
z
M 1403 2484 
Q 997 2584 770 2862 
Q 544 3141 544 3541 
Q 544 4100 942 4425 
Q 1341 4750 2034 4750 
Q 2731 4750 3128 4425 
Q 3525 4100 3525 3541 
Q 3525 3141 3298 2862 
Q 3072 2584 2669 2484 
Q 3125 2378 3379 2068 
Q 3634 1759 3634 1313 
Q 3634 634 3220 271 
Q 2806 -91 2034 -91 
Q 1263 -91 848 271 
Q 434 634 434 1313 
Q 434 1759 690 2068 
Q 947 2378 1403 2484 
z
M 1172 3481 
Q 1172 3119 1398 2916 
Q 1625 2713 2034 2713 
Q 2441 2713 2670 2916 
Q 2900 3119 2900 3481 
Q 2900 3844 2670 4047 
Q 2441 4250 2034 4250 
Q 1625 4250 1398 4047 
Q 1172 3844 1172 3481 
z
" transform="scale(0.015625)"/>
       </defs>
       <use xlink:href="#DejaVuSans-38"/>
       <use xlink:href="#DejaVuSans-30" x="63.623047"/>
      </g>
     </g>
    </g>
    <g id="xtick_6">
     <g id="line2d_11">
      <path d="M 410.21648 650.5575 
L 410.21648 31.3575 
" clip-path="url(#p9a6b95bc85)" style="fill: none; stroke-dasharray: 2.22,0.96; stroke-dashoffset: 0; stroke: #2f4156; stroke-opacity: 0.25; stroke-width: 0.6"/>
     </g>
     <g id="line2d_12">
      <g>
       <use xlink:href="#m1849d84f4b" x="410.21648" y="650.5575" style="fill: #2f4156; stroke: #2f4156; stroke-width: 0.8"/>
      </g>
     </g>
     <g id="text_6">
      <!-- 100 -->
      <g style="fill: #2f4156" transform="translate(400.67273 661.655938) scale(0.1 -0.1)">
       <defs>
        <path id="DejaVuSans-31" d="M 794 531 
L 1825 531 
L 1825 4091 
L 703 3866 
L 703 4441 
L 1819 4666 
L 2450 4666 
L 2450 531 
L 3481 531 
L 3481 0 
L 794 0 
L 794 531 
z
" transform="scale(0.015625)"/>
       </defs>
       <use xlink:href="#DejaVuSans-31"/>
       <use xlink:href="#DejaVuSans-30" x="63.623047"/>
       <use xlink:href="#DejaVuSans-30" x="127.246094"/>
      </g>
     </g>
    </g>
    <g id="text_7">
     <!-- Percent of respondents -->
     <g style="fill: #2f4156" transform="translate(208.017969 680.85375) scale(0.12 -0.12)">
      <defs>
       <path id="DejaVuSans-50" d="M 1259 4147 
L 1259 2394 
L 2053 2394 
Q 2494 2394 2734 2622 
Q 2975 2850 2975 3272 
Q 2975 3691 2734 3919 
Q 2494 4147 2053 4147 
L 1259 4147 
z
M 628 4666 
L 2053 4666 
Q 2838 4666 3239 4311 
Q 3641 3956 3641 3272 
Q 3641 2581 3239 2228 
Q 2838 1875 2053 1875 
L 1259 1875 
L 1259 0 
L 628 0 
L 628 4666 
z
" transform="scale(0.015625)"/>
       <path id="DejaVuSans-65" d="M 3597 1894 
L 3597 1613 
L 953 1613 
Q 991 1019 1311 708 
Q 1631 397 2203 397 
Q 2534 397 2845 478 
Q 3156 559 3463 722 
L 3463 178 
Q 3153 47 2828 -22 
Q 2503 -91 2169 -91 
Q 1331 -91 842 396 
Q 353 884 353 1716 
Q 353 2575 817 3079 
Q 1281 3584 2069 3584 
Q 2775 3584 3186 3129 
Q 3597 2675 3597 1894 
z
M 3022 2063 
Q 3016 2534 2758 2815 
Q 2500 3097 2075 3097 
Q 1594 3097 1305 2825 
Q 1016 2553 972 2059 
L 3022 2063 
z
" transform="scale(0.015625)"/>
       <path id="DejaVuSans-72" d="M 2631 2963 
Q 2534 3019 2420 3045 
Q 2306 3072 2169 3072 
Q 1681 3072 1420 2755 
Q 1159 2438 1159 1844 
L 1159 0 
L 581 0 
L 581 3500 
L 1159 3500 
L 1159 2956 
Q 1341 3275 1631 3429 
Q 1922 3584 2338 3584 
Q 2397 3584 2469 3576 
Q 2541 3569 2628 3553 
L 2631 2963 
z
" transform="scale(0.015625)"/>
       <path id="DejaVuSans-63" d="M 3122 3366 
L 3122 2828 
Q 2878 2963 2633 3030 
Q 2388 3097 2138 3097 
Q 1578 3097 1268 2742 
Q 959 2388 959 1747 
Q 959 1106 1268 751 
Q 1578 397 2138 397 
Q 2388 397 2633 464 
Q 2878 531 3122 666 
L 3122 134 
Q 2881 22 2623 -34 
Q 2366 -91 2075 -91 
Q 1284 -91 818 406 
Q 353 903 353 1747 
Q 353 2603 823 3093 
Q 1294 3584 2113 3584 
Q 2378 3584 2631 3529 
Q 2884 3475 3122 3366 
z
" transform="scale(0.015625)"/>
       <path id="DejaVuSans-6e" d="M 3513 2113 
L 3513 0 
L 2938 0 
L 2938 2094 
Q 2938 2591 2744 2837 
Q 2550 3084 2163 3084 
Q 1697 3084 1428 2787 
Q 1159 2491 1159 1978 
L 1159 0 
L 581 0 
L 581 3500 
L 1159 3500 
L 1159 2956 
Q 1366 3272 1645 3428 
Q 1925 3584 2291 3584 
Q 2894 3584 3203 3211 
Q 3513 2838 3513 2113 
z
" transform="scale(0.015625)"/>
       <path id="DejaVuSans-74" d="M 1172 4494 
L 1172 3500 
L 2356 3500 
L 2356 3053 
L 1172 3053 
L 1172 1153 
Q 1172 725 1289 603 
Q 1406 481 1766 481 
L 2356 481 
L 2356 0 
L 1766 0 
Q 1100 0 847 248 
Q 594 497 594 1153 
L 594 3053 
L 172 3053 
L 172 3500 
L 594 3500 
L 594 4494 
L 1172 4494 
z
" transform="scale(0.015625)"/>
       <path id="DejaVuSans-20" transform="scale(0.015625)"/>
       <path id="DejaVuSans-6f" d="M 1959 3097 
Q 1497 3097 1228 2736 
Q 959 2375 959 1747 
Q 959 1119 1226 758 
Q 1494 397 1959 397 
Q 2419 397 2687 759 
Q 2956 1122 2956 1747 
Q 2956 2369 2687 2733 
Q 2419 3097 1959 3097 
z
M 1959 3584 
Q 2709 3584 3137 3096 
Q 3566 2609 3566 1747 
Q 3566 888 3137 398 
Q 2709 -91 1959 -91 
Q 1206 -91 779 398 
Q 353 888 353 1747 
Q 353 2609 779 3096 
Q 1206 3584 1959 3584 
z
" transform="scale(0.015625)"/>
       <path id="DejaVuSans-66" d="M 2375 4863 
L 2375 4384 
L 1825 4384 
Q 1516 4384 1395 4259 
Q 1275 4134 1275 3809 
L 1275 3500 
L 2222 3500 
L 2222 3053 
L 1275 3053 
L 1275 0 
L 697 0 
L 697 3053 
L 147 3053 
L 147 3500 
L 697 3500 
L 697 3744 
Q 697 4328 969 4595 
Q 1241 4863 1831 4863 
L 2375 4863 
z
" transform="scale(0.015625)"/>
       <path id="DejaVuSans-73" d="M 2834 3397 
L 2834 2853 
Q 2591 2978 2328 3040 
Q 2066 3103 1784 3103 
Q 1356 3103 1142 2972 
Q 928 2841 928 2578 
Q 928 2378 1081 2264 
Q 1234 2150 1697 2047 
L 1894 2003 
Q 2506 1872 2764 1633 
Q 3022 1394 3022 966 
Q 3022 478 2636 193 
Q 2250 -91 1575 -91 
Q 1294 -91 989 -36 
Q 684 19 347 128 
L 347 722 
Q 666 556 975 473 
Q 1284 391 1588 391 
Q 1994 391 2212 530 
Q 2431 669 2431 922 
Q 2431 1156 2273 1281 
Q 2116 1406 1581 1522 
L 1381 1569 
Q 847 1681 609 1914 
Q 372 2147 372 2553 
Q 372 3047 722 3315 
Q 1072 3584 1716 3584 
Q 2034 3584 2315 3537 
Q 2597 3491 2834 3397 
z
" transform="scale(0.015625)"/>
       <path id="DejaVuSans-70" d="M 1159 525 
L 1159 -1331 
L 581 -1331 
L 581 3500 
L 1159 3500 
L 1159 2969 
Q 1341 3281 1617 3432 
Q 1894 3584 2278 3584 
Q 2916 3584 3314 3078 
Q 3713 2572 3713 1747 
Q 3713 922 3314 415 
Q 2916 -91 2278 -91 
Q 1894 -91 1617 61 
Q 1341 213 1159 525 
z
M 3116 1747 
Q 3116 2381 2855 2742 
Q 2594 3103 2138 3103 
Q 1681 3103 1420 2742 
Q 1159 2381 1159 1747 
Q 1159 1113 1420 752 
Q 1681 391 2138 391 
Q 2594 391 2855 752 
Q 3116 1113 3116 1747 
z
" transform="scale(0.015625)"/>
       <path id="DejaVuSans-64" d="M 2906 2969 
L 2906 4863 
L 3481 4863 
L 3481 0 
L 2906 0 
L 2906 525 
Q 2725 213 2448 61 
Q 2172 -91 1784 -91 
Q 1150 -91 751 415 
Q 353 922 353 1747 
Q 353 2572 751 3078 
Q 1150 3584 1784 3584 
Q 2172 3584 2448 3432 
Q 2725 3281 2906 2969 
z
M 947 1747 
Q 947 1113 1208 752 
Q 1469 391 1925 391 
Q 2381 391 2643 752 
Q 2906 1113 2906 1747 
Q 2906 2381 2643 2742 
Q 2381 3103 1925 3103 
Q 1469 3103 1208 2742 
Q 947 2381 947 1747 
z
" transform="scale(0.015625)"/>
      </defs>
      <use xlink:href="#DejaVuSans-50"/>
      <use xlink:href="#DejaVuSans-65" x="56.677734"/>
      <use xlink:href="#DejaVuSans-72" x="118.201172"/>
      <use xlink:href="#DejaVuSans-63" x="157.064453"/>
      <use xlink:href="#DejaVuSans-65" x="212.044922"/>
      <use xlink:href="#DejaVuSans-6e" x="273.568359"/>
      <use xlink:href="#DejaVuSans-74" x="336.947266"/>
      <use xlink:href="#DejaVuSans-20" x="376.15625"/>
      <use xlink:href="#DejaVuSans-6f" x="407.943359"/>
      <use xlink:href="#DejaVuSans-66" x="469.125"/>
      <use xlink:href="#DejaVuSans-20" x="504.330078"/>
      <use xlink:href="#DejaVuSans-72" x="536.117188"/>
      <use xlink:href="#DejaVuSans-65" x="574.980469"/>
      <use xlink:href="#DejaVuSans-73" x="636.503906"/>
      <use xlink:href="#DejaVuSans-70" x="688.603516"/>
      <use xlink:href="#DejaVuSans-6f" x="752.080078"/>
      <use xlink:href="#DejaVuSans-6e" x="813.261719"/>
      <use xlink:href="#DejaVuSans-64" x="876.640625"/>
      <use xlink:href="#DejaVuSans-65" x="940.117188"/>
      <use xlink:href="#DejaVuSans-6e" x="1001.640625"/>
      <use xlink:href="#DejaVuSans-74" x="1065.019531"/>
      <use xlink:href="#DejaVuSans-73" x="1104.228516"/>
     </g>
    </g>
   </g>
   <g id="matplotlib.axis_2">
    <g id="ytick_1">
     <g id="line2d_13">
      <path d="M 139.157656 606.09584 
L 415.637656 606.09584 
" clip-path="url(#p9a6b95bc85)" style="fill: none; stroke-dasharray: 2.22,0.96; stroke-dashoffset: 0; stroke: #b0b0b0; stroke-opacity: 0.7; stroke-width: 0.6"/>
     </g>
     <g id="line2d_14">
      <defs>
       <path id="m78f7e10f2a" d="M 0 0 
L 3.5 0 
" style="stroke: #2f4156; stroke-width: 0.8"/>
      </defs>
      <g>
       <use xlink:href="#m78f7e10f2a" x="139.157656" y="606.09584" style="fill: #2f4156; stroke: #2f4156; stroke-width: 0.8"/>
      </g>
     </g>
     <g id="text_8">
      <!-- MySpace -->
      <g style="fill: #2f4156" transform="translate(86.131875 610.274981) scale(0.11 -0.11)">
       <defs>
        <path id="DejaVuSans-4d" d="M 628 4666 
L 1569 4666 
L 2759 1491 
L 3956 4666 
L 4897 4666 
L 4897 0 
L 4281 0 
L 4281 4097 
L 3078 897 
L 2444 897 
L 1241 4097 
L 1241 0 
L 628 0 
L 628 4666 
z
" transform="scale(0.015625)"/>
        <path id="DejaVuSans-79" d="M 2059 -325 
Q 1816 -950 1584 -1140 
Q 1353 -1331 966 -1331 
L 506 -1331 
L 506 -850 
L 844 -850 
Q 1081 -850 1212 -737 
Q 1344 -625 1503 -206 
L 1606 56 
L 191 3500 
L 800 3500 
L 1894 763 
L 2988 3500 
L 3597 3500 
L 2059 -325 
z
" transform="scale(0.015625)"/>
        <path id="DejaVuSans-53" d="M 3425 4513 
L 3425 3897 
Q 3066 4069 2747 4153 
Q 2428 4238 2131 4238 
Q 1616 4238 1336 4038 
Q 1056 3838 1056 3469 
Q 1056 3159 1242 3001 
Q 1428 2844 1947 2747 
L 2328 2669 
Q 3034 2534 3370 2195 
Q 3706 1856 3706 1288 
Q 3706 609 3251 259 
Q 2797 -91 1919 -91 
Q 1588 -91 1214 -16 
Q 841 59 441 206 
L 441 856 
Q 825 641 1194 531 
Q 1563 422 1919 422 
Q 2459 422 2753 634 
Q 3047 847 3047 1241 
Q 3047 1584 2836 1778 
Q 2625 1972 2144 2069 
L 1759 2144 
Q 1053 2284 737 2584 
Q 422 2884 422 3419 
Q 422 4038 858 4394 
Q 1294 4750 2059 4750 
Q 2388 4750 2728 4690 
Q 3069 4631 3425 4513 
z
" transform="scale(0.015625)"/>
        <path id="DejaVuSans-61" d="M 2194 1759 
Q 1497 1759 1228 1600 
Q 959 1441 959 1056 
Q 959 750 1161 570 
Q 1363 391 1709 391 
Q 2188 391 2477 730 
Q 2766 1069 2766 1631 
L 2766 1759 
L 2194 1759 
z
M 3341 1997 
L 3341 0 
L 2766 0 
L 2766 531 
Q 2569 213 2275 61 
Q 1981 -91 1556 -91 
Q 1019 -91 701 211 
Q 384 513 384 1019 
Q 384 1609 779 1909 
Q 1175 2209 1959 2209 
L 2766 2209 
L 2766 2266 
Q 2766 2663 2505 2880 
Q 2244 3097 1772 3097 
Q 1472 3097 1187 3025 
Q 903 2953 641 2809 
L 641 3341 
Q 956 3463 1253 3523 
Q 1550 3584 1831 3584 
Q 2591 3584 2966 3190 
Q 3341 2797 3341 1997 
z
" transform="scale(0.015625)"/>
       </defs>
       <use xlink:href="#DejaVuSans-4d"/>
       <use xlink:href="#DejaVuSans-79" x="86.279297"/>
       <use xlink:href="#DejaVuSans-53" x="145.458984"/>
       <use xlink:href="#DejaVuSans-70" x="208.935547"/>
       <use xlink:href="#DejaVuSans-61" x="272.412109"/>
       <use xlink:href="#DejaVuSans-63" x="333.691406"/>
       <use xlink:href="#DejaVuSans-65" x="388.671875"/>
      </g>
     </g>
    </g>
    <g id="ytick_2">
     <g id="line2d_15">
      <path d="M 139.157656 565.305326 
L 415.637656 565.305326 
" clip-path="url(#p9a6b95bc85)" style="fill: none; stroke-dasharray: 2.22,0.96; stroke-dashoffset: 0; stroke: #b0b0b0; stroke-opacity: 0.7; stroke-width: 0.6"/>
     </g>
     <g id="line2d_16">
      <g>
       <use xlink:href="#m78f7e10f2a" x="139.157656" y="565.305326" style="fill: #2f4156; stroke: #2f4156; stroke-width: 0.8"/>
      </g>
     </g>
     <g id="text_9">
      <!-- YouTube -->
      <g style="fill: #2f4156" transform="translate(90.916875 569.484467) scale(0.11 -0.11)">
       <defs>
        <path id="DejaVuSans-59" d="M -13 4666 
L 666 4666 
L 1959 2747 
L 3244 4666 
L 3922 4666 
L 2272 2222 
L 2272 0 
L 1638 0 
L 1638 2222 
L -13 4666 
z
" transform="scale(0.015625)"/>
        <path id="DejaVuSans-75" d="M 544 1381 
L 544 3500 
L 1119 3500 
L 1119 1403 
Q 1119 906 1312 657 
Q 1506 409 1894 409 
Q 2359 409 2629 706 
Q 2900 1003 2900 1516 
L 2900 3500 
L 3475 3500 
L 3475 0 
L 2900 0 
L 2900 538 
Q 2691 219 2414 64 
Q 2138 -91 1772 -91 
Q 1169 -91 856 284 
Q 544 659 544 1381 
z
M 1991 3584 
L 1991 3584 
z
" transform="scale(0.015625)"/>
        <path id="DejaVuSans-54" d="M -19 4666 
L 3928 4666 
L 3928 4134 
L 2272 4134 
L 2272 0 
L 1638 0 
L 1638 4134 
L -19 4134 
L -19 4666 
z
" transform="scale(0.015625)"/>
        <path id="DejaVuSans-62" d="M 3116 1747 
Q 3116 2381 2855 2742 
Q 2594 3103 2138 3103 
Q 1681 3103 1420 2742 
Q 1159 2381 1159 1747 
Q 1159 1113 1420 752 
Q 1681 391 2138 391 
Q 2594 391 2855 752 
Q 3116 1113 3116 1747 
z
M 1159 2969 
Q 1341 3281 1617 3432 
Q 1894 3584 2278 3584 
Q 2916 3584 3314 3078 
Q 3713 2572 3713 1747 
Q 3713 922 3314 415 
Q 2916 -91 2278 -91 
Q 1894 -91 1617 61 
Q 1341 213 1159 525 
L 1159 0 
L 581 0 
L 581 4863 
L 1159 4863 
L 1159 2969 
z
" transform="scale(0.015625)"/>
       </defs>
       <use xlink:href="#DejaVuSans-59"/>
       <use xlink:href="#DejaVuSans-6f" x="47.833984"/>
       <use xlink:href="#DejaVuSans-75" x="109.015625"/>
       <use xlink:href="#DejaVuSans-54" x="172.394531"/>
       <use xlink:href="#DejaVuSans-75" x="218.353516"/>
       <use xlink:href="#DejaVuSans-62" x="281.732422"/>
       <use xlink:href="#DejaVuSans-65" x="345.208984"/>
      </g>
     </g>
    </g>
    <g id="ytick_3">
     <g id="line2d_17">
      <path d="M 139.157656 524.514812 
L 415.637656 524.514812 
" clip-path="url(#p9a6b95bc85)" style="fill: none; stroke-dasharray: 2.22,0.96; stroke-dashoffset: 0; stroke: #b0b0b0; stroke-opacity: 0.7; stroke-width: 0.6"/>
     </g>
     <g id="line2d_18">
      <g>
       <use xlink:href="#m78f7e10f2a" x="139.157656" y="524.514812" style="fill: #2f4156; stroke: #2f4156; stroke-width: 0.8"/>
      </g>
     </g>
     <g id="text_10">
      <!-- Member/Senator’s blog -->
      <g style="fill: #2f4156" transform="translate(7.2 528.693953) scale(0.11 -0.11)">
       <defs>
        <path id="DejaVuSans-6d" d="M 3328 2828 
Q 3544 3216 3844 3400 
Q 4144 3584 4550 3584 
Q 5097 3584 5394 3201 
Q 5691 2819 5691 2113 
L 5691 0 
L 5113 0 
L 5113 2094 
Q 5113 2597 4934 2840 
Q 4756 3084 4391 3084 
Q 3944 3084 3684 2787 
Q 3425 2491 3425 1978 
L 3425 0 
L 2847 0 
L 2847 2094 
Q 2847 2600 2669 2842 
Q 2491 3084 2119 3084 
Q 1678 3084 1418 2786 
Q 1159 2488 1159 1978 
L 1159 0 
L 581 0 
L 581 3500 
L 1159 3500 
L 1159 2956 
Q 1356 3278 1631 3431 
Q 1906 3584 2284 3584 
Q 2666 3584 2933 3390 
Q 3200 3197 3328 2828 
z
" transform="scale(0.015625)"/>
        <path id="DejaVuSans-2f" d="M 1625 4666 
L 2156 4666 
L 531 -594 
L 0 -594 
L 1625 4666 
z
" transform="scale(0.015625)"/>
        <path id="DejaVuSans-2019" d="M 813 4666 
L 1472 4666 
L 1472 4191 
L 959 3194 
L 556 3194 
L 813 4191 
L 813 4666 
z
" transform="scale(0.015625)"/>
        <path id="DejaVuSans-6c" d="M 603 4863 
L 1178 4863 
L 1178 0 
L 603 0 
L 603 4863 
z
" transform="scale(0.015625)"/>
        <path id="DejaVuSans-67" d="M 2906 1791 
Q 2906 2416 2648 2759 
Q 2391 3103 1925 3103 
Q 1463 3103 1205 2759 
Q 947 2416 947 1791 
Q 947 1169 1205 825 
Q 1463 481 1925 481 
Q 2391 481 2648 825 
Q 2906 1169 2906 1791 
z
M 3481 434 
Q 3481 -459 3084 -895 
Q 2688 -1331 1869 -1331 
Q 1566 -1331 1297 -1286 
Q 1028 -1241 775 -1147 
L 775 -588 
Q 1028 -725 1275 -790 
Q 1522 -856 1778 -856 
Q 2344 -856 2625 -561 
Q 2906 -266 2906 331 
L 2906 616 
Q 2728 306 2450 153 
Q 2172 0 1784 0 
Q 1141 0 747 490 
Q 353 981 353 1791 
Q 353 2603 747 3093 
Q 1141 3584 1784 3584 
Q 2172 3584 2450 3431 
Q 2728 3278 2906 2969 
L 2906 3500 
L 3481 3500 
L 3481 434 
z
" transform="scale(0.015625)"/>
       </defs>
       <use xlink:href="#DejaVuSans-4d"/>
       <use xlink:href="#DejaVuSans-65" x="86.279297"/>
       <use xlink:href="#DejaVuSans-6d" x="147.802734"/>
       <use xlink:href="#DejaVuSans-62" x="245.214844"/>
       <use xlink:href="#DejaVuSans-65" x="308.691406"/>
       <use xlink:href="#DejaVuSans-72" x="370.214844"/>
       <use xlink:href="#DejaVuSans-2f" x="411.328125"/>
       <use xlink:href="#DejaVuSans-53" x="445.019531"/>
       <use xlink:href="#DejaVuSans-65" x="508.496094"/>
       <use xlink:href="#DejaVuSans-6e" x="570.019531"/>
       <use xlink:href="#DejaVuSans-61" x="633.398438"/>
       <use xlink:href="#DejaVuSans-74" x="694.677734"/>
       <use xlink:href="#DejaVuSans-6f" x="733.886719"/>
       <use xlink:href="#DejaVuSans-72" x="795.068359"/>
       <use xlink:href="#DejaVuSans-2019" x="836.181641"/>
       <use xlink:href="#DejaVuSans-73" x="867.96875"/>
       <use xlink:href="#DejaVuSans-20" x="920.068359"/>
       <use xlink:href="#DejaVuSans-62" x="951.855469"/>
       <use xlink:href="#DejaVuSans-6c" x="1015.332031"/>
       <use xlink:href="#DejaVuSans-6f" x="1043.115234"/>
       <use xlink:href="#DejaVuSans-67" x="1104.296875"/>
      </g>
     </g>
    </g>
    <g id="ytick_4">
     <g id="line2d_19">
      <path d="M 139.157656 483.724298 
L 415.637656 483.724298 
" clip-path="url(#p9a6b95bc85)" style="fill: none; stroke-dasharray: 2.22,0.96; stroke-dashoffset: 0; stroke: #b0b0b0; stroke-opacity: 0.7; stroke-width: 0.6"/>
     </g>
     <g id="line2d_20">
      <g>
       <use xlink:href="#m78f7e10f2a" x="139.157656" y="483.724298" style="fill: #2f4156; stroke: #2f4156; stroke-width: 0.8"/>
      </g>
     </g>
     <g id="text_11">
      <!-- Twitter -->
      <g style="fill: #2f4156" transform="translate(98.787031 487.903439) scale(0.11 -0.11)">
       <defs>
        <path id="DejaVuSans-77" d="M 269 3500 
L 844 3500 
L 1563 769 
L 2278 3500 
L 2956 3500 
L 3675 769 
L 4391 3500 
L 4966 3500 
L 4050 0 
L 3372 0 
L 2619 2869 
L 1863 0 
L 1184 0 
L 269 3500 
z
" transform="scale(0.015625)"/>
        <path id="DejaVuSans-69" d="M 603 3500 
L 1178 3500 
L 1178 0 
L 603 0 
L 603 3500 
z
M 603 4863 
L 1178 4863 
L 1178 4134 
L 603 4134 
L 603 4863 
z
" transform="scale(0.015625)"/>
       </defs>
       <use xlink:href="#DejaVuSans-54"/>
       <use xlink:href="#DejaVuSans-77" x="44.583984"/>
       <use xlink:href="#DejaVuSans-69" x="126.371094"/>
       <use xlink:href="#DejaVuSans-74" x="154.154297"/>
       <use xlink:href="#DejaVuSans-74" x="193.363281"/>
       <use xlink:href="#DejaVuSans-65" x="232.572266"/>
       <use xlink:href="#DejaVuSans-72" x="294.095703"/>
      </g>
     </g>
    </g>
    <g id="ytick_5">
     <g id="line2d_21">
      <path d="M 139.157656 442.933785 
L 415.637656 442.933785 
" clip-path="url(#p9a6b95bc85)" style="fill: none; stroke-dasharray: 2.22,0.96; stroke-dashoffset: 0; stroke: #b0b0b0; stroke-opacity: 0.7; stroke-width: 0.6"/>
     </g>
     <g id="line2d_22">
      <g>
       <use xlink:href="#m78f7e10f2a" x="139.157656" y="442.933785" style="fill: #2f4156; stroke: #2f4156; stroke-width: 0.8"/>
      </g>
     </g>
     <g id="text_12">
      <!-- Town halls -->
      <g style="fill: #2f4156" transform="translate(79.060937 441.789956) scale(0.11 -0.11)">
       <defs>
        <path id="DejaVuSans-68" d="M 3513 2113 
L 3513 0 
L 2938 0 
L 2938 2094 
Q 2938 2591 2744 2837 
Q 2550 3084 2163 3084 
Q 1697 3084 1428 2787 
Q 1159 2491 1159 1978 
L 1159 0 
L 581 0 
L 581 4863 
L 1159 4863 
L 1159 2956 
Q 1366 3272 1645 3428 
Q 1925 3584 2291 3584 
Q 2894 3584 3203 3211 
Q 3513 2838 3513 2113 
z
" transform="scale(0.015625)"/>
       </defs>
       <use xlink:href="#DejaVuSans-54"/>
       <use xlink:href="#DejaVuSans-6f" x="44.083984"/>
       <use xlink:href="#DejaVuSans-77" x="105.265625"/>
       <use xlink:href="#DejaVuSans-6e" x="187.052734"/>
       <use xlink:href="#DejaVuSans-20" x="250.431641"/>
       <use xlink:href="#DejaVuSans-68" x="282.21875"/>
       <use xlink:href="#DejaVuSans-61" x="345.597656"/>
       <use xlink:href="#DejaVuSans-6c" x="406.876953"/>
       <use xlink:href="#DejaVuSans-6c" x="434.660156"/>
       <use xlink:href="#DejaVuSans-73" x="462.443359"/>
      </g>
      <!-- (online) -->
      <g style="fill: #2f4156" transform="translate(93.520781 454.10755) scale(0.11 -0.11)">
       <defs>
        <path id="DejaVuSans-28" d="M 1984 4856 
Q 1566 4138 1362 3434 
Q 1159 2731 1159 2009 
Q 1159 1288 1364 580 
Q 1569 -128 1984 -844 
L 1484 -844 
Q 1016 -109 783 600 
Q 550 1309 550 2009 
Q 550 2706 781 3412 
Q 1013 4119 1484 4856 
L 1984 4856 
z
" transform="scale(0.015625)"/>
        <path id="DejaVuSans-29" d="M 513 4856 
L 1013 4856 
Q 1481 4119 1714 3412 
Q 1947 2706 1947 2009 
Q 1947 1309 1714 600 
Q 1481 -109 1013 -844 
L 513 -844 
Q 928 -128 1133 580 
Q 1338 1288 1338 2009 
Q 1338 2731 1133 3434 
Q 928 4138 513 4856 
z
" transform="scale(0.015625)"/>
       </defs>
       <use xlink:href="#DejaVuSans-28"/>
       <use xlink:href="#DejaVuSans-6f" x="39.013672"/>
       <use xlink:href="#DejaVuSans-6e" x="100.195312"/>
       <use xlink:href="#DejaVuSans-6c" x="163.574219"/>
       <use xlink:href="#DejaVuSans-69" x="191.357422"/>
       <use xlink:href="#DejaVuSans-6e" x="219.140625"/>
       <use xlink:href="#DejaVuSans-65" x="282.519531"/>
       <use xlink:href="#DejaVuSans-29" x="344.042969"/>
      </g>
     </g>
    </g>
    <g id="ytick_6">
     <g id="line2d_23">
      <path d="M 139.157656 402.143271 
L 415.637656 402.143271 
" clip-path="url(#p9a6b95bc85)" style="fill: none; stroke-dasharray: 2.22,0.96; stroke-dashoffset: 0; stroke: #b0b0b0; stroke-opacity: 0.7; stroke-width: 0.6"/>
     </g>
     <g id="line2d_24">
      <g>
       <use xlink:href="#m78f7e10f2a" x="139.157656" y="402.143271" style="fill: #2f4156; stroke: #2f4156; stroke-width: 0.8"/>
      </g>
     </g>
     <g id="text_13">
      <!-- Surveys/polls -->
      <g style="fill: #2f4156" transform="translate(62.399375 400.999443) scale(0.11 -0.11)">
       <defs>
        <path id="DejaVuSans-76" d="M 191 3500 
L 800 3500 
L 1894 563 
L 2988 3500 
L 3597 3500 
L 2284 0 
L 1503 0 
L 191 3500 
z
" transform="scale(0.015625)"/>
       </defs>
       <use xlink:href="#DejaVuSans-53"/>
       <use xlink:href="#DejaVuSans-75" x="63.476562"/>
       <use xlink:href="#DejaVuSans-72" x="126.855469"/>
       <use xlink:href="#DejaVuSans-76" x="167.96875"/>
       <use xlink:href="#DejaVuSans-65" x="227.148438"/>
       <use xlink:href="#DejaVuSans-79" x="288.671875"/>
       <use xlink:href="#DejaVuSans-73" x="347.851562"/>
       <use xlink:href="#DejaVuSans-2f" x="399.951172"/>
       <use xlink:href="#DejaVuSans-70" x="433.642578"/>
       <use xlink:href="#DejaVuSans-6f" x="497.119141"/>
       <use xlink:href="#DejaVuSans-6c" x="558.300781"/>
       <use xlink:href="#DejaVuSans-6c" x="586.083984"/>
       <use xlink:href="#DejaVuSans-73" x="613.867188"/>
      </g>
      <!-- (online) -->
      <g style="fill: #2f4156" transform="translate(93.520781 413.317036) scale(0.11 -0.11)">
       <use xlink:href="#DejaVuSans-28"/>
       <use xlink:href="#DejaVuSans-6f" x="39.013672"/>
       <use xlink:href="#DejaVuSans-6e" x="100.195312"/>
       <use xlink:href="#DejaVuSans-6c" x="163.574219"/>
       <use xlink:href="#DejaVuSans-69" x="191.357422"/>
       <use xlink:href="#DejaVuSans-6e" x="219.140625"/>
       <use xlink:href="#DejaVuSans-65" x="282.519531"/>
       <use xlink:href="#DejaVuSans-29" x="344.042969"/>
      </g>
     </g>
    </g>
    <g id="ytick_7">
     <g id="line2d_25">
      <path d="M 139.157656 361.352757 
L 415.637656 361.352757 
" clip-path="url(#p9a6b95bc85)" style="fill: none; stroke-dasharray: 2.22,0.96; stroke-dashoffset: 0; stroke: #b0b0b0; stroke-opacity: 0.7; stroke-width: 0.6"/>
     </g>
     <g id="line2d_26">
      <g>
       <use xlink:href="#m78f7e10f2a" x="139.157656" y="361.352757" style="fill: #2f4156; stroke: #2f4156; stroke-width: 0.8"/>
      </g>
     </g>
     <g id="text_14">
      <!-- Form letters -->
      <g style="fill: #2f4156" transform="translate(68.989063 360.208929) scale(0.11 -0.11)">
       <defs>
        <path id="DejaVuSans-46" d="M 628 4666 
L 3309 4666 
L 3309 4134 
L 1259 4134 
L 1259 2759 
L 3109 2759 
L 3109 2228 
L 1259 2228 
L 1259 0 
L 628 0 
L 628 4666 
z
" transform="scale(0.015625)"/>
       </defs>
       <use xlink:href="#DejaVuSans-46"/>
       <use xlink:href="#DejaVuSans-6f" x="53.894531"/>
       <use xlink:href="#DejaVuSans-72" x="115.076172"/>
       <use xlink:href="#DejaVuSans-6d" x="154.439453"/>
       <use xlink:href="#DejaVuSans-20" x="251.851562"/>
       <use xlink:href="#DejaVuSans-6c" x="283.638672"/>
       <use xlink:href="#DejaVuSans-65" x="311.421875"/>
       <use xlink:href="#DejaVuSans-74" x="372.945312"/>
       <use xlink:href="#DejaVuSans-74" x="412.154297"/>
       <use xlink:href="#DejaVuSans-65" x="451.363281"/>
       <use xlink:href="#DejaVuSans-72" x="512.886719"/>
       <use xlink:href="#DejaVuSans-73" x="554"/>
      </g>
      <!-- (identical) -->
      <g style="fill: #2f4156" transform="translate(80.081875 372.526523) scale(0.11 -0.11)">
       <use xlink:href="#DejaVuSans-28"/>
       <use xlink:href="#DejaVuSans-69" x="39.013672"/>
       <use xlink:href="#DejaVuSans-64" x="66.796875"/>
       <use xlink:href="#DejaVuSans-65" x="130.273438"/>
       <use xlink:href="#DejaVuSans-6e" x="191.796875"/>
       <use xlink:href="#DejaVuSans-74" x="255.175781"/>
       <use xlink:href="#DejaVuSans-69" x="294.384766"/>
       <use xlink:href="#DejaVuSans-63" x="322.167969"/>
       <use xlink:href="#DejaVuSans-61" x="377.148438"/>
       <use xlink:href="#DejaVuSans-6c" x="438.427734"/>
       <use xlink:href="#DejaVuSans-29" x="466.210938"/>
      </g>
     </g>
    </g>
    <g id="ytick_8">
     <g id="line2d_27">
      <path d="M 139.157656 320.562243 
L 415.637656 320.562243 
" clip-path="url(#p9a6b95bc85)" style="fill: none; stroke-dasharray: 2.22,0.96; stroke-dashoffset: 0; stroke: #b0b0b0; stroke-opacity: 0.7; stroke-width: 0.6"/>
     </g>
     <g id="line2d_28">
      <g>
       <use xlink:href="#m78f7e10f2a" x="139.157656" y="320.562243" style="fill: #2f4156; stroke: #2f4156; stroke-width: 0.8"/>
      </g>
     </g>
     <g id="text_15">
      <!-- Facebook -->
      <g style="fill: #2f4156" transform="translate(83.962813 324.741384) scale(0.11 -0.11)">
       <defs>
        <path id="DejaVuSans-6b" d="M 581 4863 
L 1159 4863 
L 1159 1991 
L 2875 3500 
L 3609 3500 
L 1753 1863 
L 3688 0 
L 2938 0 
L 1159 1709 
L 1159 0 
L 581 0 
L 581 4863 
z
" transform="scale(0.015625)"/>
       </defs>
       <use xlink:href="#DejaVuSans-46"/>
       <use xlink:href="#DejaVuSans-61" x="48.394531"/>
       <use xlink:href="#DejaVuSans-63" x="109.673828"/>
       <use xlink:href="#DejaVuSans-65" x="164.654297"/>
       <use xlink:href="#DejaVuSans-62" x="226.177734"/>
       <use xlink:href="#DejaVuSans-6f" x="289.654297"/>
       <use xlink:href="#DejaVuSans-6f" x="350.835938"/>
       <use xlink:href="#DejaVuSans-6b" x="412.017578"/>
      </g>
     </g>
    </g>
    <g id="ytick_9">
     <g id="line2d_29">
      <path d="M 139.157656 279.771729 
L 415.637656 279.771729 
" clip-path="url(#p9a6b95bc85)" style="fill: none; stroke-dasharray: 2.22,0.96; stroke-dashoffset: 0; stroke: #b0b0b0; stroke-opacity: 0.7; stroke-width: 0.6"/>
     </g>
     <g id="line2d_30">
      <g>
       <use xlink:href="#m78f7e10f2a" x="139.157656" y="279.771729" style="fill: #2f4156; stroke: #2f4156; stroke-width: 0.8"/>
      </g>
     </g>
     <g id="text_16">
      <!-- Surveys/polls -->
      <g style="fill: #2f4156" transform="translate(62.399375 278.627901) scale(0.11 -0.11)">
       <use xlink:href="#DejaVuSans-53"/>
       <use xlink:href="#DejaVuSans-75" x="63.476562"/>
       <use xlink:href="#DejaVuSans-72" x="126.855469"/>
       <use xlink:href="#DejaVuSans-76" x="167.96875"/>
       <use xlink:href="#DejaVuSans-65" x="227.148438"/>
       <use xlink:href="#DejaVuSans-79" x="288.671875"/>
       <use xlink:href="#DejaVuSans-73" x="347.851562"/>
       <use xlink:href="#DejaVuSans-2f" x="399.951172"/>
       <use xlink:href="#DejaVuSans-70" x="433.642578"/>
       <use xlink:href="#DejaVuSans-6f" x="497.119141"/>
       <use xlink:href="#DejaVuSans-6c" x="558.300781"/>
       <use xlink:href="#DejaVuSans-6c" x="586.083984"/>
       <use xlink:href="#DejaVuSans-73" x="613.867188"/>
      </g>
      <!-- (paper) -->
      <g style="fill: #2f4156" transform="translate(95.07625 290.945495) scale(0.11 -0.11)">
       <use xlink:href="#DejaVuSans-28"/>
       <use xlink:href="#DejaVuSans-70" x="39.013672"/>
       <use xlink:href="#DejaVuSans-61" x="102.490234"/>
       <use xlink:href="#DejaVuSans-70" x="163.769531"/>
       <use xlink:href="#DejaVuSans-65" x="227.246094"/>
       <use xlink:href="#DejaVuSans-72" x="288.769531"/>
       <use xlink:href="#DejaVuSans-29" x="329.882812"/>
      </g>
     </g>
    </g>
    <g id="ytick_10">
     <g id="line2d_31">
      <path d="M 139.157656 238.981215 
L 415.637656 238.981215 
" clip-path="url(#p9a6b95bc85)" style="fill: none; stroke-dasharray: 2.22,0.96; stroke-dashoffset: 0; stroke: #b0b0b0; stroke-opacity: 0.7; stroke-width: 0.6"/>
     </g>
     <g id="line2d_32">
      <g>
       <use xlink:href="#m78f7e10f2a" x="139.157656" y="238.981215" style="fill: #2f4156; stroke: #2f4156; stroke-width: 0.8"/>
      </g>
     </g>
     <g id="text_17">
      <!-- Town halls -->
      <g style="fill: #2f4156" transform="translate(79.060937 237.837387) scale(0.11 -0.11)">
       <use xlink:href="#DejaVuSans-54"/>
       <use xlink:href="#DejaVuSans-6f" x="44.083984"/>
       <use xlink:href="#DejaVuSans-77" x="105.265625"/>
       <use xlink:href="#DejaVuSans-6e" x="187.052734"/>
       <use xlink:href="#DejaVuSans-20" x="250.431641"/>
       <use xlink:href="#DejaVuSans-68" x="282.21875"/>
       <use xlink:href="#DejaVuSans-61" x="345.597656"/>
       <use xlink:href="#DejaVuSans-6c" x="406.876953"/>
       <use xlink:href="#DejaVuSans-6c" x="434.660156"/>
       <use xlink:href="#DejaVuSans-73" x="462.443359"/>
      </g>
      <!-- (telephone) -->
      <g style="fill: #2f4156" transform="translate(71.744219 250.154981) scale(0.11 -0.11)">
       <use xlink:href="#DejaVuSans-28"/>
       <use xlink:href="#DejaVuSans-74" x="39.013672"/>
       <use xlink:href="#DejaVuSans-65" x="78.222656"/>
       <use xlink:href="#DejaVuSans-6c" x="139.746094"/>
       <use xlink:href="#DejaVuSans-65" x="167.529297"/>
       <use xlink:href="#DejaVuSans-70" x="229.052734"/>
       <use xlink:href="#DejaVuSans-68" x="292.529297"/>
       <use xlink:href="#DejaVuSans-6f" x="355.908203"/>
       <use xlink:href="#DejaVuSans-6e" x="417.089844"/>
       <use xlink:href="#DejaVuSans-65" x="480.46875"/>
       <use xlink:href="#DejaVuSans-29" x="541.992188"/>
      </g>
     </g>
    </g>
    <g id="ytick_11">
     <g id="line2d_33">
      <path d="M 139.157656 198.190702 
L 415.637656 198.190702 
" clip-path="url(#p9a6b95bc85)" style="fill: none; stroke-dasharray: 2.22,0.96; stroke-dashoffset: 0; stroke: #b0b0b0; stroke-opacity: 0.7; stroke-width: 0.6"/>
     </g>
     <g id="line2d_34">
      <g>
       <use xlink:href="#m78f7e10f2a" x="139.157656" y="198.190702" style="fill: #2f4156; stroke: #2f4156; stroke-width: 0.8"/>
      </g>
     </g>
     <g id="text_18">
      <!-- Town halls -->
      <g style="fill: #2f4156" transform="translate(79.060937 197.046873) scale(0.11 -0.11)">
       <use xlink:href="#DejaVuSans-54"/>
       <use xlink:href="#DejaVuSans-6f" x="44.083984"/>
       <use xlink:href="#DejaVuSans-77" x="105.265625"/>
       <use xlink:href="#DejaVuSans-6e" x="187.052734"/>
       <use xlink:href="#DejaVuSans-20" x="250.431641"/>
       <use xlink:href="#DejaVuSans-68" x="282.21875"/>
       <use xlink:href="#DejaVuSans-61" x="345.597656"/>
       <use xlink:href="#DejaVuSans-6c" x="406.876953"/>
       <use xlink:href="#DejaVuSans-6c" x="434.660156"/>
       <use xlink:href="#DejaVuSans-73" x="462.443359"/>
      </g>
      <!-- (in person) -->
      <g style="fill: #2f4156" transform="translate(75.845156 209.364467) scale(0.11 -0.11)">
       <use xlink:href="#DejaVuSans-28"/>
       <use xlink:href="#DejaVuSans-69" x="39.013672"/>
       <use xlink:href="#DejaVuSans-6e" x="66.796875"/>
       <use xlink:href="#DejaVuSans-20" x="130.175781"/>
       <use xlink:href="#DejaVuSans-70" x="161.962891"/>
       <use xlink:href="#DejaVuSans-65" x="225.439453"/>
       <use xlink:href="#DejaVuSans-72" x="286.962891"/>
       <use xlink:href="#DejaVuSans-73" x="328.076172"/>
       <use xlink:href="#DejaVuSans-6f" x="380.175781"/>
       <use xlink:href="#DejaVuSans-6e" x="441.357422"/>
       <use xlink:href="#DejaVuSans-29" x="504.736328"/>
      </g>
     </g>
    </g>
    <g id="ytick_12">
     <g id="line2d_35">
      <path d="M 139.157656 157.400188 
L 415.637656 157.400188 
" clip-path="url(#p9a6b95bc85)" style="fill: none; stroke-dasharray: 2.22,0.96; stroke-dashoffset: 0; stroke: #b0b0b0; stroke-opacity: 0.7; stroke-width: 0.6"/>
     </g>
     <g id="line2d_36">
      <g>
       <use xlink:href="#m78f7e10f2a" x="139.157656" y="157.400188" style="fill: #2f4156; stroke: #2f4156; stroke-width: 0.8"/>
      </g>
     </g>
     <g id="text_19">
      <!-- Office hours -->
      <g style="fill: #2f4156" transform="translate(68.959844 156.25636) scale(0.11 -0.11)">
       <defs>
        <path id="DejaVuSans-4f" d="M 2522 4238 
Q 1834 4238 1429 3725 
Q 1025 3213 1025 2328 
Q 1025 1447 1429 934 
Q 1834 422 2522 422 
Q 3209 422 3611 934 
Q 4013 1447 4013 2328 
Q 4013 3213 3611 3725 
Q 3209 4238 2522 4238 
z
M 2522 4750 
Q 3503 4750 4090 4092 
Q 4678 3434 4678 2328 
Q 4678 1225 4090 567 
Q 3503 -91 2522 -91 
Q 1538 -91 948 565 
Q 359 1222 359 2328 
Q 359 3434 948 4092 
Q 1538 4750 2522 4750 
z
" transform="scale(0.015625)"/>
       </defs>
       <use xlink:href="#DejaVuSans-4f"/>
       <use xlink:href="#DejaVuSans-66" x="78.710938"/>
       <use xlink:href="#DejaVuSans-66" x="113.916016"/>
       <use xlink:href="#DejaVuSans-69" x="149.121094"/>
       <use xlink:href="#DejaVuSans-63" x="176.904297"/>
       <use xlink:href="#DejaVuSans-65" x="231.884766"/>
       <use xlink:href="#DejaVuSans-20" x="293.408203"/>
       <use xlink:href="#DejaVuSans-68" x="325.195312"/>
       <use xlink:href="#DejaVuSans-6f" x="388.574219"/>
       <use xlink:href="#DejaVuSans-75" x="449.755859"/>
       <use xlink:href="#DejaVuSans-72" x="513.134766"/>
       <use xlink:href="#DejaVuSans-73" x="554.248047"/>
      </g>
      <!-- (district/state) -->
      <g style="fill: #2f4156" transform="translate(57.48375 168.573953) scale(0.11 -0.11)">
       <use xlink:href="#DejaVuSans-28"/>
       <use xlink:href="#DejaVuSans-64" x="39.013672"/>
       <use xlink:href="#DejaVuSans-69" x="102.490234"/>
       <use xlink:href="#DejaVuSans-73" x="130.273438"/>
       <use xlink:href="#DejaVuSans-74" x="182.373047"/>
       <use xlink:href="#DejaVuSans-72" x="221.582031"/>
       <use xlink:href="#DejaVuSans-69" x="262.695312"/>
       <use xlink:href="#DejaVuSans-63" x="290.478516"/>
       <use xlink:href="#DejaVuSans-74" x="345.458984"/>
       <use xlink:href="#DejaVuSans-2f" x="384.667969"/>
       <use xlink:href="#DejaVuSans-73" x="418.359375"/>
       <use xlink:href="#DejaVuSans-74" x="470.458984"/>
       <use xlink:href="#DejaVuSans-61" x="509.667969"/>
       <use xlink:href="#DejaVuSans-74" x="570.947266"/>
       <use xlink:href="#DejaVuSans-65" x="610.15625"/>
       <use xlink:href="#DejaVuSans-29" x="671.679688"/>
      </g>
     </g>
    </g>
    <g id="ytick_13">
     <g id="line2d_37">
      <path d="M 139.157656 116.609674 
L 415.637656 116.609674 
" clip-path="url(#p9a6b95bc85)" style="fill: none; stroke-dasharray: 2.22,0.96; stroke-dashoffset: 0; stroke: #b0b0b0; stroke-opacity: 0.7; stroke-width: 0.6"/>
     </g>
     <g id="line2d_38">
      <g>
       <use xlink:href="#m78f7e10f2a" x="139.157656" y="116.609674" style="fill: #2f4156; stroke: #2f4156; stroke-width: 0.8"/>
      </g>
     </g>
     <g id="text_20">
      <!-- Personalized messages -->
      <g style="fill: #2f4156" transform="translate(7.660625 115.465846) scale(0.11 -0.11)">
       <defs>
        <path id="DejaVuSans-7a" d="M 353 3500 
L 3084 3500 
L 3084 2975 
L 922 459 
L 3084 459 
L 3084 0 
L 275 0 
L 275 525 
L 2438 3041 
L 353 3041 
L 353 3500 
z
" transform="scale(0.015625)"/>
       </defs>
       <use xlink:href="#DejaVuSans-50"/>
       <use xlink:href="#DejaVuSans-65" x="56.677734"/>
       <use xlink:href="#DejaVuSans-72" x="118.201172"/>
       <use xlink:href="#DejaVuSans-73" x="159.314453"/>
       <use xlink:href="#DejaVuSans-6f" x="211.414062"/>
       <use xlink:href="#DejaVuSans-6e" x="272.595703"/>
       <use xlink:href="#DejaVuSans-61" x="335.974609"/>
       <use xlink:href="#DejaVuSans-6c" x="397.253906"/>
       <use xlink:href="#DejaVuSans-69" x="425.037109"/>
       <use xlink:href="#DejaVuSans-7a" x="452.820312"/>
       <use xlink:href="#DejaVuSans-65" x="505.310547"/>
       <use xlink:href="#DejaVuSans-64" x="566.833984"/>
       <use xlink:href="#DejaVuSans-20" x="630.310547"/>
       <use xlink:href="#DejaVuSans-6d" x="662.097656"/>
       <use xlink:href="#DejaVuSans-65" x="759.509766"/>
       <use xlink:href="#DejaVuSans-73" x="821.033203"/>
       <use xlink:href="#DejaVuSans-73" x="873.132812"/>
       <use xlink:href="#DejaVuSans-61" x="925.232422"/>
       <use xlink:href="#DejaVuSans-67" x="986.511719"/>
       <use xlink:href="#DejaVuSans-65" x="1049.988281"/>
       <use xlink:href="#DejaVuSans-73" x="1111.511719"/>
      </g>
      <!-- (email, mail, phone) -->
      <g style="fill: #2f4156" transform="translate(24.762187 127.78344) scale(0.11 -0.11)">
       <defs>
        <path id="DejaVuSans-2c" d="M 750 794 
L 1409 794 
L 1409 256 
L 897 -744 
L 494 -744 
L 750 256 
L 750 794 
z
" transform="scale(0.015625)"/>
       </defs>
       <use xlink:href="#DejaVuSans-28"/>
       <use xlink:href="#DejaVuSans-65" x="39.013672"/>
       <use xlink:href="#DejaVuSans-6d" x="100.537109"/>
       <use xlink:href="#DejaVuSans-61" x="197.949219"/>
       <use xlink:href="#DejaVuSans-69" x="259.228516"/>
       <use xlink:href="#DejaVuSans-6c" x="287.011719"/>
       <use xlink:href="#DejaVuSans-2c" x="314.794922"/>
       <use xlink:href="#DejaVuSans-20" x="346.582031"/>
       <use xlink:href="#DejaVuSans-6d" x="378.369141"/>
       <use xlink:href="#DejaVuSans-61" x="475.78125"/>
       <use xlink:href="#DejaVuSans-69" x="537.060547"/>
       <use xlink:href="#DejaVuSans-6c" x="564.84375"/>
       <use xlink:href="#DejaVuSans-2c" x="592.626953"/>
       <use xlink:href="#DejaVuSans-20" x="624.414062"/>
       <use xlink:href="#DejaVuSans-70" x="656.201172"/>
       <use xlink:href="#DejaVuSans-68" x="719.677734"/>
       <use xlink:href="#DejaVuSans-6f" x="783.056641"/>
       <use xlink:href="#DejaVuSans-6e" x="844.238281"/>
       <use xlink:href="#DejaVuSans-65" x="907.617188"/>
       <use xlink:href="#DejaVuSans-29" x="969.140625"/>
      </g>
     </g>
    </g>
    <g id="ytick_14">
     <g id="line2d_39">
      <path d="M 139.157656 75.81916 
L 415.637656 75.81916 
" clip-path="url(#p9a6b95bc85)" style="fill: none; stroke-dasharray: 2.22,0.96; stroke-dashoffset: 0; stroke: #b0b0b0; stroke-opacity: 0.7; stroke-width: 0.6"/>
     </g>
     <g id="line2d_40">
      <g>
       <use xlink:href="#m78f7e10f2a" x="139.157656" y="75.81916" style="fill: #2f4156; stroke: #2f4156; stroke-width: 0.8"/>
      </g>
     </g>
     <g id="text_21">
      <!-- Attend events -->
      <g style="fill: #2f4156" transform="translate(58.420469 74.675332) scale(0.11 -0.11)">
       <defs>
        <path id="DejaVuSans-41" d="M 2188 4044 
L 1331 1722 
L 3047 1722 
L 2188 4044 
z
M 1831 4666 
L 2547 4666 
L 4325 0 
L 3669 0 
L 3244 1197 
L 1141 1197 
L 716 0 
L 50 0 
L 1831 4666 
z
" transform="scale(0.015625)"/>
       </defs>
       <use xlink:href="#DejaVuSans-41"/>
       <use xlink:href="#DejaVuSans-74" x="66.658203"/>
       <use xlink:href="#DejaVuSans-74" x="105.867188"/>
       <use xlink:href="#DejaVuSans-65" x="145.076172"/>
       <use xlink:href="#DejaVuSans-6e" x="206.599609"/>
       <use xlink:href="#DejaVuSans-64" x="269.978516"/>
       <use xlink:href="#DejaVuSans-20" x="333.455078"/>
       <use xlink:href="#DejaVuSans-65" x="365.242188"/>
       <use xlink:href="#DejaVuSans-76" x="426.765625"/>
       <use xlink:href="#DejaVuSans-65" x="485.945312"/>
       <use xlink:href="#DejaVuSans-6e" x="547.46875"/>
       <use xlink:href="#DejaVuSans-74" x="610.847656"/>
       <use xlink:href="#DejaVuSans-73" x="650.056641"/>
      </g>
      <!-- (in district/state) -->
      <g style="fill: #2f4156" transform="translate(43.960625 86.992926) scale(0.11 -0.11)">
       <use xlink:href="#DejaVuSans-28"/>
       <use xlink:href="#DejaVuSans-69" x="39.013672"/>
       <use xlink:href="#DejaVuSans-6e" x="66.796875"/>
       <use xlink:href="#DejaVuSans-20" x="130.175781"/>
       <use xlink:href="#DejaVuSans-64" x="161.962891"/>
       <use xlink:href="#DejaVuSans-69" x="225.439453"/>
       <use xlink:href="#DejaVuSans-73" x="253.222656"/>
       <use xlink:href="#DejaVuSans-74" x="305.322266"/>
       <use xlink:href="#DejaVuSans-72" x="344.53125"/>
       <use xlink:href="#DejaVuSans-69" x="385.644531"/>
       <use xlink:href="#DejaVuSans-63" x="413.427734"/>
       <use xlink:href="#DejaVuSans-74" x="468.408203"/>
       <use xlink:href="#DejaVuSans-2f" x="507.617188"/>
       <use xlink:href="#DejaVuSans-73" x="541.308594"/>
       <use xlink:href="#DejaVuSans-74" x="593.408203"/>
       <use xlink:href="#DejaVuSans-61" x="632.617188"/>
       <use xlink:href="#DejaVuSans-74" x="693.896484"/>
       <use xlink:href="#DejaVuSans-65" x="733.105469"/>
       <use xlink:href="#DejaVuSans-29" x="794.628906"/>
      </g>
     </g>
    </g>
   </g>
   <g id="patch_3">
    <path d="M 139.157656 622.412045 
L 160.842362 622.412045 
L 160.842362 589.779634 
L 139.157656 589.779634 
z
" clip-path="url(#p9a6b95bc85)" style="fill: #ffd44d"/>
   </g>
   <g id="patch_4">
    <path d="M 139.157656 581.621532 
L 220.475303 581.621532 
L 220.475303 548.989121 
L 139.157656 548.989121 
z
" clip-path="url(#p9a6b95bc85)" style="fill: #ffd44d"/>
   </g>
   <g id="patch_5">
    <path d="M 139.157656 540.831018 
L 223.185892 540.831018 
L 223.185892 508.198607 
L 139.157656 508.198607 
z
" clip-path="url(#p9a6b95bc85)" style="fill: #ffd44d"/>
   </g>
   <g id="patch_6">
    <path d="M 139.157656 500.040504 
L 242.160009 500.040504 
L 242.160009 467.408093 
L 139.157656 467.408093 
z
" clip-path="url(#p9a6b95bc85)" style="fill: #ffd44d"/>
   </g>
   <g id="patch_7">
    <path d="M 139.157656 459.24999 
L 220.475303 459.24999 
L 220.475303 426.617579 
L 139.157656 426.617579 
z
" clip-path="url(#p9a6b95bc85)" style="fill: #ffd44d"/>
   </g>
   <g id="patch_8">
    <path d="M 139.157656 418.459476 
L 266.555303 418.459476 
L 266.555303 385.827065 
L 139.157656 385.827065 
z
" clip-path="url(#p9a6b95bc85)" style="fill: #ffd44d"/>
   </g>
   <g id="patch_9">
    <path d="M 139.157656 377.668962 
L 280.108244 377.668962 
L 280.108244 345.036551 
L 139.157656 345.036551 
z
" clip-path="url(#p9a6b95bc85)" style="fill: #ffd44d"/>
   </g>
   <g id="patch_10">
    <path d="M 139.157656 336.878449 
L 290.950597 336.878449 
L 290.950597 304.246038 
L 139.157656 304.246038 
z
" clip-path="url(#p9a6b95bc85)" style="fill: #ffd44d"/>
   </g>
   <g id="patch_11">
    <path d="M 139.157656 296.087935 
L 288.240009 296.087935 
L 288.240009 263.455524 
L 139.157656 263.455524 
z
" clip-path="url(#p9a6b95bc85)" style="fill: #ffd44d"/>
   </g>
   <g id="patch_12">
    <path d="M 139.157656 255.297421 
L 253.002362 255.297421 
L 253.002362 222.66501 
L 139.157656 222.66501 
z
" clip-path="url(#p9a6b95bc85)" style="fill: #ffd44d"/>
   </g>
   <g id="patch_13">
    <path d="M 139.157656 214.506907 
L 228.607068 214.506907 
L 228.607068 181.874496 
L 139.157656 181.874496 
z
" clip-path="url(#p9a6b95bc85)" style="fill: #ffd44d"/>
   </g>
   <g id="patch_14">
    <path d="M 139.157656 173.716393 
L 239.449421 173.716393 
L 239.449421 141.083982 
L 139.157656 141.083982 
z
" clip-path="url(#p9a6b95bc85)" style="fill: #ffd44d"/>
   </g>
   <g id="patch_15">
    <path d="M 139.157656 132.925879 
L 212.343539 132.925879 
L 212.343539 100.293468 
L 139.157656 100.293468 
z
" clip-path="url(#p9a6b95bc85)" style="fill: #ffd44d"/>
   </g>
   <g id="patch_16">
    <path d="M 139.157656 92.135366 
L 196.080009 92.135366 
L 196.080009 59.502955 
L 139.157656 59.502955 
z
" clip-path="url(#p9a6b95bc85)" style="fill: #ffd44d"/>
   </g>
   <g id="patch_17">
    <path d="M 160.842362 622.412045 
L 163.55295 622.412045 
L 163.55295 589.779634 
L 160.842362 589.779634 
z
" clip-path="url(#p9a6b95bc85)" style="fill: #2f4156"/>
   </g>
   <g id="patch_18">
    <path d="M 220.475303 581.621532 
L 231.317656 581.621532 
L 231.317656 548.989121 
L 220.475303 548.989121 
z
" clip-path="url(#p9a6b95bc85)" style="fill: #2f4156"/>
   </g>
   <g id="patch_19">
    <path d="M 223.185892 540.831018 
L 231.317656 540.831018 
L 231.317656 508.198607 
L 223.185892 508.198607 
z
" clip-path="url(#p9a6b95bc85)" style="fill: #2f4156"/>
   </g>
   <g id="patch_20">
    <path d="M 242.160009 500.040504 
L 253.002362 500.040504 
L 253.002362 467.408093 
L 242.160009 467.408093 
z
" clip-path="url(#p9a6b95bc85)" style="fill: #2f4156"/>
   </g>
   <g id="patch_21">
    <path d="M 220.475303 459.24999 
L 258.423539 459.24999 
L 258.423539 426.617579 
L 220.475303 426.617579 
z
" clip-path="url(#p9a6b95bc85)" style="fill: #2f4156"/>
   </g>
   <g id="patch_22">
    <path d="M 266.555303 418.459476 
L 285.529421 418.459476 
L 285.529421 385.827065 
L 266.555303 385.827065 
z
" clip-path="url(#p9a6b95bc85)" style="fill: #2f4156"/>
   </g>
   <g id="patch_23">
    <path d="M 280.108244 377.668962 
L 290.950597 377.668962 
L 290.950597 345.036551 
L 280.108244 345.036551 
z
" clip-path="url(#p9a6b95bc85)" style="fill: #2f4156"/>
   </g>
   <g id="patch_24">
    <path d="M 290.950597 336.878449 
L 312.635303 336.878449 
L 312.635303 304.246038 
L 290.950597 304.246038 
z
" clip-path="url(#p9a6b95bc85)" style="fill: #2f4156"/>
   </g>
   <g id="patch_25">
    <path d="M 288.240009 296.087935 
L 323.477656 296.087935 
L 323.477656 263.455524 
L 288.240009 263.455524 
z
" clip-path="url(#p9a6b95bc85)" style="fill: #2f4156"/>
   </g>
   <g id="patch_26">
    <path d="M 253.002362 255.297421 
L 364.13648 255.297421 
L 364.13648 222.66501 
L 253.002362 222.66501 
z
" clip-path="url(#p9a6b95bc85)" style="fill: #2f4156"/>
   </g>
   <g id="patch_27">
    <path d="M 228.607068 214.506907 
L 383.110597 214.506907 
L 383.110597 181.874496 
L 228.607068 181.874496 
z
" clip-path="url(#p9a6b95bc85)" style="fill: #2f4156"/>
   </g>
   <g id="patch_28">
    <path d="M 239.449421 173.716393 
L 383.110597 173.716393 
L 383.110597 141.083982 
L 239.449421 141.083982 
z
" clip-path="url(#p9a6b95bc85)" style="fill: #2f4156"/>
   </g>
   <g id="patch_29">
    <path d="M 212.343539 132.925879 
L 402.084715 132.925879 
L 402.084715 100.293468 
L 212.343539 100.293468 
z
" clip-path="url(#p9a6b95bc85)" style="fill: #2f4156"/>
   </g>
   <g id="patch_30">
    <path d="M 196.080009 92.135366 
L 404.795303 92.135366 
L 404.795303 59.502955 
L 196.080009 59.502955 
z
" clip-path="url(#p9a6b95bc85)" style="fill: #2f4156"/>
   </g>
   <g id="patch_31">
    <path d="M 139.157656 650.5575 
L 139.157656 31.3575 
" style="fill: none; stroke: #1a1a1a; stroke-linejoin: miter; stroke-linecap: square"/>
   </g>
   <g id="patch_32">
    <path d="M 139.157656 650.5575 
L 415.637656 650.5575 
" style="fill: none; stroke: #1a1a1a; stroke-linejoin: miter; stroke-linecap: square"/>
   </g>
   <g id="text_22">
    <!-- 1% -->
    <g style="fill: #2f4156" transform="translate(167.618833 608.855215) scale(0.1 -0.1)">
     <defs>
      <path id="DejaVuSans-25" d="M 4653 2053 
Q 4381 2053 4226 1822 
Q 4072 1591 4072 1178 
Q 4072 772 4226 539 
Q 4381 306 4653 306 
Q 4919 306 5073 539 
Q 5228 772 5228 1178 
Q 5228 1588 5073 1820 
Q 4919 2053 4653 2053 
z
M 4653 2450 
Q 5147 2450 5437 2106 
Q 5728 1763 5728 1178 
Q 5728 594 5436 251 
Q 5144 -91 4653 -91 
Q 4153 -91 3862 251 
Q 3572 594 3572 1178 
Q 3572 1766 3864 2108 
Q 4156 2450 4653 2450 
z
M 1428 4353 
Q 1159 4353 1004 4120 
Q 850 3888 850 3481 
Q 850 3069 1003 2837 
Q 1156 2606 1428 2606 
Q 1700 2606 1854 2837 
Q 2009 3069 2009 3481 
Q 2009 3884 1853 4118 
Q 1697 4353 1428 4353 
z
M 4250 4750 
L 4750 4750 
L 1831 -91 
L 1331 -91 
L 4250 4750 
z
M 1428 4750 
Q 1922 4750 2215 4408 
Q 2509 4066 2509 3481 
Q 2509 2891 2217 2550 
Q 1925 2209 1428 2209 
Q 931 2209 642 2551 
Q 353 2894 353 3481 
Q 353 4063 643 4406 
Q 934 4750 1428 4750 
z
" transform="scale(0.015625)"/>
     </defs>
     <use xlink:href="#DejaVuSans-31"/>
     <use xlink:href="#DejaVuSans-25" x="63.623047"/>
    </g>
   </g>
   <g id="text_23">
    <!-- 30% -->
    <g style="fill: #2f4156" transform="translate(166.651714 568.340639) scale(0.11 -0.11)">
     <defs>
      <path id="DejaVuSans-Bold-33" d="M 2981 2516 
Q 3453 2394 3698 2092 
Q 3944 1791 3944 1325 
Q 3944 631 3412 270 
Q 2881 -91 1863 -91 
Q 1503 -91 1142 -33 
Q 781 25 428 141 
L 428 1069 
Q 766 900 1098 814 
Q 1431 728 1753 728 
Q 2231 728 2486 893 
Q 2741 1059 2741 1369 
Q 2741 1688 2480 1852 
Q 2219 2016 1709 2016 
L 1228 2016 
L 1228 2791 
L 1734 2791 
Q 2188 2791 2409 2933 
Q 2631 3075 2631 3366 
Q 2631 3634 2415 3781 
Q 2200 3928 1806 3928 
Q 1516 3928 1219 3862 
Q 922 3797 628 3669 
L 628 4550 
Q 984 4650 1334 4700 
Q 1684 4750 2022 4750 
Q 2931 4750 3382 4451 
Q 3834 4153 3834 3553 
Q 3834 3144 3618 2883 
Q 3403 2622 2981 2516 
z
" transform="scale(0.015625)"/>
      <path id="DejaVuSans-Bold-30" d="M 2944 2338 
Q 2944 3213 2780 3570 
Q 2616 3928 2228 3928 
Q 1841 3928 1675 3570 
Q 1509 3213 1509 2338 
Q 1509 1453 1675 1090 
Q 1841 728 2228 728 
Q 2613 728 2778 1090 
Q 2944 1453 2944 2338 
z
M 4147 2328 
Q 4147 1169 3647 539 
Q 3147 -91 2228 -91 
Q 1306 -91 806 539 
Q 306 1169 306 2328 
Q 306 3491 806 4120 
Q 1306 4750 2228 4750 
Q 3147 4750 3647 4120 
Q 4147 3491 4147 2328 
z
" transform="scale(0.015625)"/>
      <path id="DejaVuSans-Bold-25" d="M 4959 1925 
Q 4738 1925 4616 1733 
Q 4494 1541 4494 1184 
Q 4494 825 4614 633 
Q 4734 441 4959 441 
Q 5184 441 5303 633 
Q 5422 825 5422 1184 
Q 5422 1541 5301 1733 
Q 5181 1925 4959 1925 
z
M 4959 2450 
Q 5541 2450 5875 2112 
Q 6209 1775 6209 1184 
Q 6209 594 5875 251 
Q 5541 -91 4959 -91 
Q 4378 -91 4042 251 
Q 3706 594 3706 1184 
Q 3706 1772 4042 2111 
Q 4378 2450 4959 2450 
z
M 2094 -91 
L 1403 -91 
L 4319 4750 
L 5013 4750 
L 2094 -91 
z
M 1453 4750 
Q 2034 4750 2367 4411 
Q 2700 4072 2700 3481 
Q 2700 2891 2367 2550 
Q 2034 2209 1453 2209 
Q 872 2209 539 2550 
Q 206 2891 206 3481 
Q 206 4072 539 4411 
Q 872 4750 1453 4750 
z
M 1453 4225 
Q 1228 4225 1106 4031 
Q 984 3838 984 3481 
Q 984 3122 1106 2926 
Q 1228 2731 1453 2731 
Q 1678 2731 1798 2926 
Q 1919 3122 1919 3481 
Q 1919 3838 1797 4031 
Q 1675 4225 1453 4225 
z
" transform="scale(0.015625)"/>
     </defs>
     <use xlink:href="#DejaVuSans-Bold-33"/>
     <use xlink:href="#DejaVuSans-Bold-30" x="69.580078"/>
     <use xlink:href="#DejaVuSans-Bold-25" x="139.160156"/>
    </g>
   </g>
   <g id="text_24">
    <!-- 4% -->
    <g style="fill: #2f4156" transform="translate(235.383539 568.064701) scale(0.1 -0.1)">
     <use xlink:href="#DejaVuSans-34"/>
     <use xlink:href="#DejaVuSans-25" x="63.623047"/>
    </g>
   </g>
   <g id="text_25">
    <!-- 31% -->
    <g style="fill: #2f4156" transform="translate(168.007008 527.550125) scale(0.11 -0.11)">
     <defs>
      <path id="DejaVuSans-Bold-31" d="M 750 831 
L 1813 831 
L 1813 3847 
L 722 3622 
L 722 4441 
L 1806 4666 
L 2950 4666 
L 2950 831 
L 4013 831 
L 4013 0 
L 750 0 
L 750 831 
z
" transform="scale(0.015625)"/>
     </defs>
     <use xlink:href="#DejaVuSans-Bold-33"/>
     <use xlink:href="#DejaVuSans-Bold-31" x="69.580078"/>
     <use xlink:href="#DejaVuSans-Bold-25" x="139.160156"/>
    </g>
   </g>
   <g id="text_26">
    <!-- 3% -->
    <g style="fill: #2f4156" transform="translate(235.383539 527.274187) scale(0.1 -0.1)">
     <defs>
      <path id="DejaVuSans-33" d="M 2597 2516 
Q 3050 2419 3304 2112 
Q 3559 1806 3559 1356 
Q 3559 666 3084 287 
Q 2609 -91 1734 -91 
Q 1441 -91 1130 -33 
Q 819 25 488 141 
L 488 750 
Q 750 597 1062 519 
Q 1375 441 1716 441 
Q 2309 441 2620 675 
Q 2931 909 2931 1356 
Q 2931 1769 2642 2001 
Q 2353 2234 1838 2234 
L 1294 2234 
L 1294 2753 
L 1863 2753 
Q 2328 2753 2575 2939 
Q 2822 3125 2822 3475 
Q 2822 3834 2567 4026 
Q 2313 4219 1838 4219 
Q 1578 4219 1281 4162 
Q 984 4106 628 3988 
L 628 4550 
Q 988 4650 1302 4700 
Q 1616 4750 1894 4750 
Q 2613 4750 3031 4423 
Q 3450 4097 3450 3541 
Q 3450 3153 3228 2886 
Q 3006 2619 2597 2516 
z
" transform="scale(0.015625)"/>
     </defs>
     <use xlink:href="#DejaVuSans-33"/>
     <use xlink:href="#DejaVuSans-25" x="63.623047"/>
    </g>
   </g>
   <g id="text_27">
    <!-- 38% -->
    <g style="fill: #2f4156" transform="translate(177.494067 486.759611) scale(0.11 -0.11)">
     <defs>
      <path id="DejaVuSans-Bold-38" d="M 2228 2088 
Q 1891 2088 1709 1903 
Q 1528 1719 1528 1375 
Q 1528 1031 1709 848 
Q 1891 666 2228 666 
Q 2563 666 2741 848 
Q 2919 1031 2919 1375 
Q 2919 1722 2741 1905 
Q 2563 2088 2228 2088 
z
M 1350 2484 
Q 925 2613 709 2878 
Q 494 3144 494 3541 
Q 494 4131 934 4440 
Q 1375 4750 2228 4750 
Q 3075 4750 3515 4442 
Q 3956 4134 3956 3541 
Q 3956 3144 3739 2878 
Q 3522 2613 3097 2484 
Q 3572 2353 3814 2058 
Q 4056 1763 4056 1313 
Q 4056 619 3595 264 
Q 3134 -91 2228 -91 
Q 1319 -91 855 264 
Q 391 619 391 1313 
Q 391 1763 633 2058 
Q 875 2353 1350 2484 
z
M 1631 3419 
Q 1631 3141 1786 2991 
Q 1941 2841 2228 2841 
Q 2509 2841 2662 2991 
Q 2816 3141 2816 3419 
Q 2816 3697 2662 3845 
Q 2509 3994 2228 3994 
Q 1941 3994 1786 3844 
Q 1631 3694 1631 3419 
z
" transform="scale(0.015625)"/>
     </defs>
     <use xlink:href="#DejaVuSans-Bold-33"/>
     <use xlink:href="#DejaVuSans-Bold-38" x="69.580078"/>
     <use xlink:href="#DejaVuSans-Bold-25" x="139.160156"/>
    </g>
   </g>
   <g id="text_28">
    <!-- 4% -->
    <g style="fill: #2f4156" transform="translate(257.068244 486.483673) scale(0.1 -0.1)">
     <use xlink:href="#DejaVuSans-34"/>
     <use xlink:href="#DejaVuSans-25" x="63.623047"/>
    </g>
   </g>
   <g id="text_29">
    <!-- 30% -->
    <g style="fill: #2f4156" transform="translate(166.651714 445.969097) scale(0.11 -0.11)">
     <use xlink:href="#DejaVuSans-Bold-33"/>
     <use xlink:href="#DejaVuSans-Bold-30" x="69.580078"/>
     <use xlink:href="#DejaVuSans-Bold-25" x="139.160156"/>
    </g>
   </g>
   <g id="text_30">
    <!-- 14% -->
    <g style="fill: #fef4e9" transform="translate(226.284655 445.969097) scale(0.11 -0.11)">
     <defs>
      <path id="DejaVuSans-Bold-34" d="M 2356 3675 
L 1038 1722 
L 2356 1722 
L 2356 3675 
z
M 2156 4666 
L 3494 4666 
L 3494 1722 
L 4159 1722 
L 4159 850 
L 3494 850 
L 3494 0 
L 2356 0 
L 2356 850 
L 288 850 
L 288 1881 
L 2156 4666 
z
" transform="scale(0.015625)"/>
     </defs>
     <use xlink:href="#DejaVuSans-Bold-31"/>
     <use xlink:href="#DejaVuSans-Bold-34" x="69.580078"/>
     <use xlink:href="#DejaVuSans-Bold-25" x="139.160156"/>
    </g>
   </g>
   <g id="text_31">
    <!-- 47% -->
    <g style="fill: #2f4156" transform="translate(189.691714 405.178583) scale(0.11 -0.11)">
     <defs>
      <path id="DejaVuSans-Bold-37" d="M 428 4666 
L 3944 4666 
L 3944 3988 
L 2125 0 
L 953 0 
L 2675 3781 
L 428 3781 
L 428 4666 
z
" transform="scale(0.015625)"/>
     </defs>
     <use xlink:href="#DejaVuSans-Bold-34"/>
     <use xlink:href="#DejaVuSans-Bold-37" x="69.580078"/>
     <use xlink:href="#DejaVuSans-Bold-25" x="139.160156"/>
    </g>
   </g>
   <g id="text_32">
    <!-- 7% -->
    <g style="fill: #2f4156" transform="translate(289.595303 404.902646) scale(0.1 -0.1)">
     <defs>
      <path id="DejaVuSans-37" d="M 525 4666 
L 3525 4666 
L 3525 4397 
L 1831 0 
L 1172 0 
L 2766 4134 
L 525 4134 
L 525 4666 
z
" transform="scale(0.015625)"/>
     </defs>
     <use xlink:href="#DejaVuSans-37"/>
     <use xlink:href="#DejaVuSans-25" x="63.623047"/>
    </g>
   </g>
   <g id="text_33">
    <!-- 52% -->
    <g style="fill: #2f4156" transform="translate(196.468185 364.388069) scale(0.11 -0.11)">
     <defs>
      <path id="DejaVuSans-Bold-35" d="M 678 4666 
L 3669 4666 
L 3669 3781 
L 1638 3781 
L 1638 3059 
Q 1775 3097 1914 3117 
Q 2053 3138 2203 3138 
Q 3056 3138 3531 2711 
Q 4006 2284 4006 1522 
Q 4006 766 3489 337 
Q 2972 -91 2053 -91 
Q 1656 -91 1267 -14 
Q 878 63 494 219 
L 494 1166 
Q 875 947 1217 837 
Q 1559 728 1863 728 
Q 2300 728 2551 942 
Q 2803 1156 2803 1522 
Q 2803 1891 2551 2103 
Q 2300 2316 1863 2316 
Q 1603 2316 1309 2248 
Q 1016 2181 678 2041 
L 678 4666 
z
" transform="scale(0.015625)"/>
      <path id="DejaVuSans-Bold-32" d="M 1844 884 
L 3897 884 
L 3897 0 
L 506 0 
L 506 884 
L 2209 2388 
Q 2438 2594 2547 2791 
Q 2656 2988 2656 3200 
Q 2656 3528 2436 3728 
Q 2216 3928 1850 3928 
Q 1569 3928 1234 3808 
Q 900 3688 519 3450 
L 519 4475 
Q 925 4609 1322 4679 
Q 1719 4750 2100 4750 
Q 2938 4750 3402 4381 
Q 3866 4013 3866 3353 
Q 3866 2972 3669 2642 
Q 3472 2313 2841 1759 
L 1844 884 
z
" transform="scale(0.015625)"/>
     </defs>
     <use xlink:href="#DejaVuSans-Bold-35"/>
     <use xlink:href="#DejaVuSans-Bold-32" x="69.580078"/>
     <use xlink:href="#DejaVuSans-Bold-25" x="139.160156"/>
    </g>
   </g>
   <g id="text_34">
    <!-- 4% -->
    <g style="fill: #2f4156" transform="translate(295.01648 364.112132) scale(0.1 -0.1)">
     <use xlink:href="#DejaVuSans-34"/>
     <use xlink:href="#DejaVuSans-25" x="63.623047"/>
    </g>
   </g>
   <g id="text_35">
    <!-- 56% -->
    <g style="fill: #2f4156" transform="translate(201.889361 323.597556) scale(0.11 -0.11)">
     <defs>
      <path id="DejaVuSans-Bold-36" d="M 2316 2303 
Q 2000 2303 1842 2098 
Q 1684 1894 1684 1484 
Q 1684 1075 1842 870 
Q 2000 666 2316 666 
Q 2634 666 2792 870 
Q 2950 1075 2950 1484 
Q 2950 1894 2792 2098 
Q 2634 2303 2316 2303 
z
M 3803 4544 
L 3803 3681 
Q 3506 3822 3243 3889 
Q 2981 3956 2731 3956 
Q 2194 3956 1894 3657 
Q 1594 3359 1544 2772 
Q 1750 2925 1990 3001 
Q 2231 3078 2516 3078 
Q 3231 3078 3670 2659 
Q 4109 2241 4109 1563 
Q 4109 813 3618 361 
Q 3128 -91 2303 -91 
Q 1394 -91 895 523 
Q 397 1138 397 2266 
Q 397 3422 980 4083 
Q 1563 4744 2578 4744 
Q 2900 4744 3203 4694 
Q 3506 4644 3803 4544 
z
" transform="scale(0.015625)"/>
     </defs>
     <use xlink:href="#DejaVuSans-Bold-35"/>
     <use xlink:href="#DejaVuSans-Bold-36" x="69.580078"/>
     <use xlink:href="#DejaVuSans-Bold-25" x="139.160156"/>
    </g>
   </g>
   <g id="text_36">
    <!-- 8% -->
    <g style="fill: #fef4e9" transform="translate(292.454982 323.597556) scale(0.11 -0.11)">
     <use xlink:href="#DejaVuSans-Bold-38"/>
     <use xlink:href="#DejaVuSans-Bold-25" x="69.580078"/>
    </g>
   </g>
   <g id="text_37">
    <!-- 55% -->
    <g style="fill: #2f4156" transform="translate(200.534067 282.807042) scale(0.11 -0.11)">
     <use xlink:href="#DejaVuSans-Bold-35"/>
     <use xlink:href="#DejaVuSans-Bold-35" x="69.580078"/>
     <use xlink:href="#DejaVuSans-Bold-25" x="139.160156"/>
    </g>
   </g>
   <g id="text_38">
    <!-- 13% -->
    <g style="fill: #fef4e9" transform="translate(292.694067 282.807042) scale(0.11 -0.11)">
     <use xlink:href="#DejaVuSans-Bold-31"/>
     <use xlink:href="#DejaVuSans-Bold-33" x="69.580078"/>
     <use xlink:href="#DejaVuSans-Bold-25" x="139.160156"/>
    </g>
   </g>
   <g id="text_39">
    <!-- 42% -->
    <g style="fill: #2f4156" transform="translate(182.915244 242.016528) scale(0.11 -0.11)">
     <use xlink:href="#DejaVuSans-Bold-34"/>
     <use xlink:href="#DejaVuSans-Bold-32" x="69.580078"/>
     <use xlink:href="#DejaVuSans-Bold-25" x="139.160156"/>
    </g>
   </g>
   <g id="text_40">
    <!-- 41% -->
    <g style="fill: #fef4e9" transform="translate(295.404655 242.016528) scale(0.11 -0.11)">
     <use xlink:href="#DejaVuSans-Bold-34"/>
     <use xlink:href="#DejaVuSans-Bold-31" x="69.580078"/>
     <use xlink:href="#DejaVuSans-Bold-25" x="139.160156"/>
    </g>
   </g>
   <g id="text_41">
    <!-- 33% -->
    <g style="fill: #2f4156" transform="translate(170.717597 201.226014) scale(0.11 -0.11)">
     <use xlink:href="#DejaVuSans-Bold-33"/>
     <use xlink:href="#DejaVuSans-Bold-33" x="69.580078"/>
     <use xlink:href="#DejaVuSans-Bold-25" x="139.160156"/>
    </g>
   </g>
   <g id="text_42">
    <!-- 57% -->
    <g style="fill: #fef4e9" transform="translate(292.694067 201.226014) scale(0.11 -0.11)">
     <use xlink:href="#DejaVuSans-Bold-35"/>
     <use xlink:href="#DejaVuSans-Bold-37" x="69.580078"/>
     <use xlink:href="#DejaVuSans-Bold-25" x="139.160156"/>
    </g>
   </g>
   <g id="text_43">
    <!-- 37% -->
    <g style="fill: #2f4156" transform="translate(176.138773 160.4355) scale(0.11 -0.11)">
     <use xlink:href="#DejaVuSans-Bold-33"/>
     <use xlink:href="#DejaVuSans-Bold-37" x="69.580078"/>
     <use xlink:href="#DejaVuSans-Bold-25" x="139.160156"/>
    </g>
   </g>
   <g id="text_44">
    <!-- 53% -->
    <g style="fill: #fef4e9" transform="translate(298.115244 160.4355) scale(0.11 -0.11)">
     <use xlink:href="#DejaVuSans-Bold-35"/>
     <use xlink:href="#DejaVuSans-Bold-33" x="69.580078"/>
     <use xlink:href="#DejaVuSans-Bold-25" x="139.160156"/>
    </g>
   </g>
   <g id="text_45">
    <!-- 27% -->
    <g style="fill: #2f4156" transform="translate(162.585832 119.644986) scale(0.11 -0.11)">
     <use xlink:href="#DejaVuSans-Bold-32"/>
     <use xlink:href="#DejaVuSans-Bold-37" x="69.580078"/>
     <use xlink:href="#DejaVuSans-Bold-25" x="139.160156"/>
    </g>
   </g>
   <g id="text_46">
    <!-- 70% -->
    <g style="fill: #fef4e9" transform="translate(294.049361 119.644986) scale(0.11 -0.11)">
     <use xlink:href="#DejaVuSans-Bold-37"/>
     <use xlink:href="#DejaVuSans-Bold-30" x="69.580078"/>
     <use xlink:href="#DejaVuSans-Bold-25" x="139.160156"/>
    </g>
   </g>
   <g id="text_47">
    <!-- 21% -->
    <g style="fill: #2f4156" transform="translate(154.454067 78.854473) scale(0.11 -0.11)">
     <use xlink:href="#DejaVuSans-Bold-32"/>
     <use xlink:href="#DejaVuSans-Bold-31" x="69.580078"/>
     <use xlink:href="#DejaVuSans-Bold-25" x="139.160156"/>
    </g>
   </g>
   <g id="text_48">
    <!-- 77% -->
    <g style="fill: #fef4e9" transform="translate(287.272891 78.854473) scale(0.11 -0.11)">
     <use xlink:href="#DejaVuSans-Bold-37"/>
     <use xlink:href="#DejaVuSans-Bold-37" x="69.580078"/>
     <use xlink:href="#DejaVuSans-Bold-25" x="139.160156"/>
    </g>
   </g>
   <g id="text_49">
    <!-- What channels matter to reps -->
    <g style="fill: #2f4156" transform="translate(142.427656 19.3575) scale(0.16 -0.16)">
     <defs>
      <path id="DejaVuSans-Bold-57" d="M 191 4666 
L 1344 4666 
L 2150 1275 
L 2950 4666 
L 4109 4666 
L 4909 1275 
L 5716 4666 
L 6859 4666 
L 5759 0 
L 4372 0 
L 3525 3547 
L 2688 0 
L 1300 0 
L 191 4666 
z
" transform="scale(0.015625)"/>
      <path id="DejaVuSans-Bold-68" d="M 4056 2131 
L 4056 0 
L 2931 0 
L 2931 347 
L 2931 1625 
Q 2931 2084 2911 2256 
Q 2891 2428 2841 2509 
Q 2775 2619 2662 2680 
Q 2550 2741 2406 2741 
Q 2056 2741 1856 2470 
Q 1656 2200 1656 1722 
L 1656 0 
L 538 0 
L 538 4863 
L 1656 4863 
L 1656 2988 
Q 1909 3294 2193 3439 
Q 2478 3584 2822 3584 
Q 3428 3584 3742 3212 
Q 4056 2841 4056 2131 
z
" transform="scale(0.015625)"/>
      <path id="DejaVuSans-Bold-61" d="M 2106 1575 
Q 1756 1575 1579 1456 
Q 1403 1338 1403 1106 
Q 1403 894 1545 773 
Q 1688 653 1941 653 
Q 2256 653 2472 879 
Q 2688 1106 2688 1447 
L 2688 1575 
L 2106 1575 
z
M 3816 1997 
L 3816 0 
L 2688 0 
L 2688 519 
Q 2463 200 2181 54 
Q 1900 -91 1497 -91 
Q 953 -91 614 226 
Q 275 544 275 1050 
Q 275 1666 698 1953 
Q 1122 2241 2028 2241 
L 2688 2241 
L 2688 2328 
Q 2688 2594 2478 2717 
Q 2269 2841 1825 2841 
Q 1466 2841 1156 2769 
Q 847 2697 581 2553 
L 581 3406 
Q 941 3494 1303 3539 
Q 1666 3584 2028 3584 
Q 2975 3584 3395 3211 
Q 3816 2838 3816 1997 
z
" transform="scale(0.015625)"/>
      <path id="DejaVuSans-Bold-74" d="M 1759 4494 
L 1759 3500 
L 2913 3500 
L 2913 2700 
L 1759 2700 
L 1759 1216 
Q 1759 972 1856 886 
Q 1953 800 2241 800 
L 2816 800 
L 2816 0 
L 1856 0 
Q 1194 0 917 276 
Q 641 553 641 1216 
L 641 2700 
L 84 2700 
L 84 3500 
L 641 3500 
L 641 4494 
L 1759 4494 
z
" transform="scale(0.015625)"/>
      <path id="DejaVuSans-Bold-20" transform="scale(0.015625)"/>
      <path id="DejaVuSans-Bold-63" d="M 3366 3391 
L 3366 2478 
Q 3138 2634 2908 2709 
Q 2678 2784 2431 2784 
Q 1963 2784 1702 2511 
Q 1441 2238 1441 1747 
Q 1441 1256 1702 982 
Q 1963 709 2431 709 
Q 2694 709 2930 787 
Q 3166 866 3366 1019 
L 3366 103 
Q 3103 6 2833 -42 
Q 2563 -91 2291 -91 
Q 1344 -91 809 395 
Q 275 881 275 1747 
Q 275 2613 809 3098 
Q 1344 3584 2291 3584 
Q 2566 3584 2833 3536 
Q 3100 3488 3366 3391 
z
" transform="scale(0.015625)"/>
      <path id="DejaVuSans-Bold-6e" d="M 4056 2131 
L 4056 0 
L 2931 0 
L 2931 347 
L 2931 1631 
Q 2931 2084 2911 2256 
Q 2891 2428 2841 2509 
Q 2775 2619 2662 2680 
Q 2550 2741 2406 2741 
Q 2056 2741 1856 2470 
Q 1656 2200 1656 1722 
L 1656 0 
L 538 0 
L 538 3500 
L 1656 3500 
L 1656 2988 
Q 1909 3294 2193 3439 
Q 2478 3584 2822 3584 
Q 3428 3584 3742 3212 
Q 4056 2841 4056 2131 
z
" transform="scale(0.015625)"/>
      <path id="DejaVuSans-Bold-65" d="M 4031 1759 
L 4031 1441 
L 1416 1441 
Q 1456 1047 1700 850 
Q 1944 653 2381 653 
Q 2734 653 3104 758 
Q 3475 863 3866 1075 
L 3866 213 
Q 3469 63 3072 -14 
Q 2675 -91 2278 -91 
Q 1328 -91 801 392 
Q 275 875 275 1747 
Q 275 2603 792 3093 
Q 1309 3584 2216 3584 
Q 3041 3584 3536 3087 
Q 4031 2591 4031 1759 
z
M 2881 2131 
Q 2881 2450 2695 2645 
Q 2509 2841 2209 2841 
Q 1884 2841 1681 2658 
Q 1478 2475 1428 2131 
L 2881 2131 
z
" transform="scale(0.015625)"/>
      <path id="DejaVuSans-Bold-6c" d="M 538 4863 
L 1656 4863 
L 1656 0 
L 538 0 
L 538 4863 
z
" transform="scale(0.015625)"/>
      <path id="DejaVuSans-Bold-73" d="M 3272 3391 
L 3272 2541 
Q 2913 2691 2578 2766 
Q 2244 2841 1947 2841 
Q 1628 2841 1473 2761 
Q 1319 2681 1319 2516 
Q 1319 2381 1436 2309 
Q 1553 2238 1856 2203 
L 2053 2175 
Q 2913 2066 3209 1816 
Q 3506 1566 3506 1031 
Q 3506 472 3093 190 
Q 2681 -91 1863 -91 
Q 1516 -91 1145 -36 
Q 775 19 384 128 
L 384 978 
Q 719 816 1070 734 
Q 1422 653 1784 653 
Q 2113 653 2278 743 
Q 2444 834 2444 1013 
Q 2444 1163 2330 1236 
Q 2216 1309 1875 1350 
L 1678 1375 
Q 931 1469 631 1722 
Q 331 1975 331 2491 
Q 331 3047 712 3315 
Q 1094 3584 1881 3584 
Q 2191 3584 2531 3537 
Q 2872 3491 3272 3391 
z
" transform="scale(0.015625)"/>
      <path id="DejaVuSans-Bold-6d" d="M 3781 2919 
Q 3994 3244 4286 3414 
Q 4578 3584 4928 3584 
Q 5531 3584 5847 3212 
Q 6163 2841 6163 2131 
L 6163 0 
L 5038 0 
L 5038 1825 
Q 5041 1866 5042 1909 
Q 5044 1953 5044 2034 
Q 5044 2406 4934 2573 
Q 4825 2741 4581 2741 
Q 4263 2741 4089 2478 
Q 3916 2216 3909 1719 
L 3909 0 
L 2784 0 
L 2784 1825 
Q 2784 2406 2684 2573 
Q 2584 2741 2328 2741 
Q 2006 2741 1831 2477 
Q 1656 2213 1656 1722 
L 1656 0 
L 531 0 
L 531 3500 
L 1656 3500 
L 1656 2988 
Q 1863 3284 2130 3434 
Q 2397 3584 2719 3584 
Q 3081 3584 3359 3409 
Q 3638 3234 3781 2919 
z
" transform="scale(0.015625)"/>
      <path id="DejaVuSans-Bold-72" d="M 3138 2547 
Q 2991 2616 2845 2648 
Q 2700 2681 2553 2681 
Q 2122 2681 1889 2404 
Q 1656 2128 1656 1613 
L 1656 0 
L 538 0 
L 538 3500 
L 1656 3500 
L 1656 2925 
Q 1872 3269 2151 3426 
Q 2431 3584 2822 3584 
Q 2878 3584 2943 3579 
Q 3009 3575 3134 3559 
L 3138 2547 
z
" transform="scale(0.015625)"/>
      <path id="DejaVuSans-Bold-6f" d="M 2203 2784 
Q 1831 2784 1636 2517 
Q 1441 2250 1441 1747 
Q 1441 1244 1636 976 
Q 1831 709 2203 709 
Q 2569 709 2762 976 
Q 2956 1244 2956 1747 
Q 2956 2250 2762 2517 
Q 2569 2784 2203 2784 
z
M 2203 3584 
Q 3106 3584 3614 3096 
Q 4122 2609 4122 1747 
Q 4122 884 3614 396 
Q 3106 -91 2203 -91 
Q 1297 -91 786 396 
Q 275 884 275 1747 
Q 275 2609 786 3096 
Q 1297 3584 2203 3584 
z
" transform="scale(0.015625)"/>
      <path id="DejaVuSans-Bold-70" d="M 1656 506 
L 1656 -1331 
L 538 -1331 
L 538 3500 
L 1656 3500 
L 1656 2988 
Q 1888 3294 2169 3439 
Q 2450 3584 2816 3584 
Q 3463 3584 3878 3070 
Q 4294 2556 4294 1747 
Q 4294 938 3878 423 
Q 3463 -91 2816 -91 
Q 2450 -91 2169 54 
Q 1888 200 1656 506 
z
M 2400 2772 
Q 2041 2772 1848 2508 
Q 1656 2244 1656 1747 
Q 1656 1250 1848 986 
Q 2041 722 2400 722 
Q 2759 722 2948 984 
Q 3138 1247 3138 1747 
Q 3138 2247 2948 2509 
Q 2759 2772 2400 2772 
z
" transform="scale(0.015625)"/>
     </defs>
     <use xlink:href="#DejaVuSans-Bold-57"/>
     <use xlink:href="#DejaVuSans-Bold-68" x="110.302734"/>
     <use xlink:href="#DejaVuSans-Bold-61" x="181.494141"/>
     <use xlink:href="#DejaVuSans-Bold-74" x="248.974609"/>
     <use xlink:href="#DejaVuSans-Bold-20" x="296.777344"/>
     <use xlink:href="#DejaVuSans-Bold-63" x="331.591797"/>
     <use xlink:href="#DejaVuSans-Bold-68" x="390.869141"/>
     <use xlink:href="#DejaVuSans-Bold-61" x="462.060547"/>
     <use xlink:href="#DejaVuSans-Bold-6e" x="529.541016"/>
     <use xlink:href="#DejaVuSans-Bold-6e" x="600.732422"/>
     <use xlink:href="#DejaVuSans-Bold-65" x="671.923828"/>
     <use xlink:href="#DejaVuSans-Bold-6c" x="739.746094"/>
     <use xlink:href="#DejaVuSans-Bold-73" x="774.023438"/>
     <use xlink:href="#DejaVuSans-Bold-20" x="833.544922"/>
     <use xlink:href="#DejaVuSans-Bold-6d" x="868.359375"/>
     <use xlink:href="#DejaVuSans-Bold-61" x="972.558594"/>
     <use xlink:href="#DejaVuSans-Bold-74" x="1040.039062"/>
     <use xlink:href="#DejaVuSans-Bold-74" x="1087.841797"/>
     <use xlink:href="#DejaVuSans-Bold-65" x="1135.644531"/>
     <use xlink:href="#DejaVuSans-Bold-72" x="1203.466797"/>
     <use xlink:href="#DejaVuSans-Bold-20" x="1252.783203"/>
     <use xlink:href="#DejaVuSans-Bold-74" x="1287.597656"/>
     <use xlink:href="#DejaVuSans-Bold-6f" x="1335.400391"/>
     <use xlink:href="#DejaVuSans-Bold-20" x="1404.101562"/>
     <use xlink:href="#DejaVuSans-Bold-72" x="1438.916016"/>
     <use xlink:href="#DejaVuSans-Bold-65" x="1488.232422"/>
     <use xlink:href="#DejaVuSans-Bold-70" x="1556.054688"/>
     <use xlink:href="#DejaVuSans-Bold-73" x="1627.636719"/>
    </g>
   </g>
   <g id="legend_1">
    <g id="patch_33">
     <path d="M 258.691719 622.223906 
L 280.691719 622.223906 
L 280.691719 614.523906 
L 258.691719 614.523906 
z
" style="fill: #ffd44d"/>
    </g>
    <g id="text_50">
     <!-- Somewhat Important -->
     <g style="fill: #333333" transform="translate(289.491719 622.223906) scale(0.11 -0.11)">
      <defs>
       <path id="DejaVuSans-49" d="M 628 4666 
L 1259 4666 
L 1259 0 
L 628 0 
L 628 4666 
z
" transform="scale(0.015625)"/>
      </defs>
      <use xlink:href="#DejaVuSans-53"/>
      <use xlink:href="#DejaVuSans-6f" x="63.476562"/>
      <use xlink:href="#DejaVuSans-6d" x="124.658203"/>
      <use xlink:href="#DejaVuSans-65" x="222.070312"/>
      <use xlink:href="#DejaVuSans-77" x="283.59375"/>
      <use xlink:href="#DejaVuSans-68" x="365.380859"/>
      <use xlink:href="#DejaVuSans-61" x="428.759766"/>
      <use xlink:href="#DejaVuSans-74" x="490.039062"/>
      <use xlink:href="#DejaVuSans-20" x="529.248047"/>
      <use xlink:href="#DejaVuSans-49" x="561.035156"/>
      <use xlink:href="#DejaVuSans-6d" x="590.527344"/>
      <use xlink:href="#DejaVuSans-70" x="687.939453"/>
      <use xlink:href="#DejaVuSans-6f" x="751.416016"/>
      <use xlink:href="#DejaVuSans-72" x="812.597656"/>
      <use xlink:href="#DejaVuSans-74" x="853.710938"/>
      <use xlink:href="#DejaVuSans-61" x="892.919922"/>
      <use xlink:href="#DejaVuSans-6e" x="954.199219"/>
      <use xlink:href="#DejaVuSans-74" x="1017.578125"/>
     </g>
    </g>
    <g id="patch_34">
     <path d="M 258.691719 638.369844 
L 280.691719 638.369844 
L 280.691719 630.669844 
L 258.691719 630.669844 
z
" style="fill: #2f4156"/>
    </g>
    <g id="text_51">
     <!-- Very Important -->
     <g style="fill: #333333" transform="translate(289.491719 638.369844) scale(0.11 -0.11)">
      <defs>
       <path id="DejaVuSans-56" d="M 1831 0 
L 50 4666 
L 709 4666 
L 2188 738 
L 3669 4666 
L 4325 4666 
L 2547 0 
L 1831 0 
z
" transform="scale(0.015625)"/>
      </defs>
      <use xlink:href="#DejaVuSans-56"/>
      <use xlink:href="#DejaVuSans-65" x="60.658203"/>
      <use xlink:href="#DejaVuSans-72" x="122.181641"/>
      <use xlink:href="#DejaVuSans-79" x="163.294922"/>
      <use xlink:href="#DejaVuSans-20" x="222.474609"/>
      <use xlink:href="#DejaVuSans-49" x="254.261719"/>
      <use xlink:href="#DejaVuSans-6d" x="283.753906"/>
      <use xlink:href="#DejaVuSans-70" x="381.166016"/>
      <use xlink:href="#DejaVuSans-6f" x="444.642578"/>
      <use xlink:href="#DejaVuSans-72" x="505.824219"/>
      <use xlink:href="#DejaVuSans-74" x="546.9375"/>
      <use xlink:href="#DejaVuSans-61" x="586.146484"/>
      <use xlink:href="#DejaVuSans-6e" x="647.425781"/>
      <use xlink:href="#DejaVuSans-74" x="710.804688"/>
     </g>
    </g>
   </g>
  </g>
 </g>
 <defs>
  <clipPath id="p9a6b95bc85">
   <rect x="139.157656" y="31.3575" width="276.48" height="619.2"/>
  </clipPath>
 </defs>
</svg>
