<?xml version="1.0" encoding="UTF-8"?>
<svg viewBox="0 0 667 667" xmlns="http://www.w3.org/2000/svg">
<path d="m579.6 42.933c-17.867 0.6667-19.467 1.3334-19.6 7.3334-0.133 4.9333-6 13.333-12.533 17.6-15.2 10.267-34.8 2.1334-39.6-16.267-0.8-2.9334-2.4-6.1333-3.6-7.0667-2.134-1.6-38-2.4-43.867-0.8-2.133 0.6667-3.2 2.5334-4.4 7.6-3.2 13.467-12.4 20.933-26 20.933-12.133 0-22.133-7.8667-25.333-20-1.067-3.8667-2.667-7.6001-3.6-8.1334-0.934-0.6667-11.2-1.2-22.8-1.2-23.2 0-22-0.4-24.134 9.4667-2 9.0666-11.6 17.733-21.733 19.333-14.267 2.1333-26.533-7.0667-30.267-22.8-0.533-2.1334-1.733-4.4-2.533-4.9333-0.933-0.5333-11.067-1.0667-22.533-1.0667-20.134 0-20.934 0.1334-22.934 2.9333-1.2 1.6-2.133 4.2667-2.133 5.7334 0 5.4667-6.933 14-14.267 17.467-6.133 3.0666-8 3.3333-15.066 2.5333-7.067-0.8-8.667-1.6001-13.867-6.6667-4.4-4.1334-6.133-7.0667-6.8-11.333-1.733-10.133-3.067-10.667-27.2-10.667-23.6 0-22.933-0.2667-26 9.7333-4.133 13.867-12.933 20.267-27.067 19.333-7.866-0.5333-8.8-0.9334-14.266-6.2667-3.334-3.2-7.2-8.6666-8.667-12.133-4.2667-9.7334-4.6667-9.8667-27.067-10.533-11.333-0.2667-20.533 0.1333-21.2 0.7999-1.3333 1.3334-1.8666 47.467-0.6666 49.6 0.5333 0.6667 4.1333 2.0001 8.2666 2.8001 20.4 4.2663 27.067 26 13.067 42.666-4 4.667-8.1333 6.667-15.2 7.334-7.4667 0.666-8.1333 2.933-7.7333 24.4 0.1333 12.666 0.8 20 2 21.466 0.9333 1.334 4 2.8 6.9333 3.2 8.4 1.067 14.667 5.734 18.267 13.467 4.1333 8.933 4 14.667-0.4 23.6-4.1334 8-11.333 13.2-18.667 13.2-7.8667 0-8.4 1.867-8.4 25.333 0 23.467 0.6667 25.334 8.2667 25.334 6.4 0 15.333 5.866 18.533 12.266 3.8667 7.6 3.8667 17.867 0.1333 24-4.8 7.734-9.3333 11.467-16.267 13.067-3.6 0.8-7.3334 2.533-8.1334 3.6-1.2 1.333-1.7333 8-1.8666 20.8-0.2667 21.867 0.6666 24.933 7.8666 24.933 5.2 0 11.733 4.134 17.067 10.8 4.5333 5.734 6.2667 16.667 3.8667 24.267-1.6 4.8-12 15.467-15.067 15.733-6.6667 0.267-11.333 1.467-12.533 3.2-2.2667 2.934-1.3334 43.334 1.0666 44.8 0.9334 0.667 3.8667 1.2 6.5334 1.2 11.067 0 21.2 12.934 21.2 26.934 0 6-0.6667 8.266-4 12.933-4.8 6.533-11.2 10.8-16.133 10.8-2 0-4.9333 1.2-6.6666 2.533-3.2 2.534-3.2 2.534-3.2 34.934-0.1334 36.8 0.1333 39.466 3.3333 41.2 2.8 1.466 36.8 2 40.4 0.533 1.4667-0.533 4.5333-5.2 6.9333-10.533 5.1997-11.467 10.534-15.467 21.467-16.4 12.933-1.067 23.867 6.8 28.4 20.533l2.133 6.533 21.334 0.4c11.733 0.134 22.666 0 24.133-0.4 2-0.4 3.333-2.266 4.267-6.4 2-7.6 6.533-14.133 12.266-17.466 5.6-3.334 18.4-3.734 25.067-0.934 5.067 2.134 12 11.334 13.2 17.734 1.333 7.733 1.467 7.733 25.067 7.733 24 0 22.8 0.4 26.533-9.467 4.4-12 13.2-18.533 25.067-18.533 11.466 0 22.133 8.133 24.533 18.533 0.533 1.867 1.733 4.8 2.667 6.534 1.866 2.8 2.533 2.933 23.066 2.933 18.667 0 21.334-0.267 23.2-2.4 1.334-1.333 2.267-3.2 2.267-4.133 0-4 7.467-15.067 11.867-17.867 3.866-2.4 6.8-2.933 14.8-2.933 9.066 0 10.4 0.4 15.066 4 5.867 4.533 8.267 8.666 9.6 15.6 0.534 2.8 1.734 5.6 2.534 6.4 2.4 1.866 42.533 1.866 46 0 1.6-0.8 3.066-3.067 3.6-5.067 1.466-6.933 3.466-10.667 7.6-14.533 6.133-5.734 11.733-7.6 20.8-6.667 13.2 1.2 19.333 6.133 23.066 18.933 2.534 8.934 1.867 8.667 26.4 8.667 19.2 0 22.534-0.267 23.2-2.133 0.4-1.2 0.8-18.134 0.8-37.734 0-32.933-0.133-35.866-2.4-37.866-1.333-1.334-3.6-2.267-5.066-2.267-5.334-0.133-13.734-5.2-17.334-10.533-5.2-8-5.733-15.734-1.333-24.534 4.267-8.933 6.133-10.533 16.133-14.533 6.667-2.667 8.134-3.867 8.8-7.2 1.467-6.4 1.334-36.533-0.133-39.067-0.8-1.6-3.467-2.8-7.2-3.333-13.067-2-21.333-12.8-20.533-26.8 0.4-6.4 1.333-9.333 4.4-13.733 4-5.734 12.533-10.934 17.6-10.934 6.4 0 7.2-2.8 6.933-24.933-0.133-14.933-0.667-21.067-1.867-22.267-1.066-0.933-4.533-2.133-8-2.533-3.466-0.533-7.866-2.133-10-3.6-7.733-5.467-11.6-20.4-7.866-30.267 2.933-7.733 14.4-16.266 22.133-16.4 1.6 0 3.333-0.666 3.733-1.333 1.6-2.533 2.267-39.2 0.934-42.8-1.067-2.8-2.8-3.867-8.267-5.2-12.4-2.933-20-12.667-20-25.333 0-12.134 7.2-21.067 20-24.8 4-1.2 7.733-2.934 8.267-3.734 0.533-0.8 1.066-10.266 1.066-21.066 0-22.4 0-22.4-11.2-25.6-5.066-1.467-8.4-3.6-11.466-6.934-5.334-6.133-6.667-9.733-6.667-17.6 0.133-12.666 9.067-24.266 18.8-24.266 2.533 0 5.867-0.9334 7.333-2 2.667-1.8667 2.8-3.0667 2.934-25.333 0-22.533-0.134-23.467-2.934-25.333-1.466-0.9334-4.266-1.6-6.133-1.6-1.867 0.1334-11.067 0.5333-20.4 0.9333z" fill="#fff"/>
<path d="m579.6 42.667c-17.867 0.6667-19.467 1.3334-19.6 7.3334-0.133 4.9332-6 13.333-12.533 17.6-15.2 10.267-34.8 2.1334-39.6-16.267-0.8-2.9334-2.4-6.1334-3.6-7.0667-2.134-1.6-38-2.4-43.867-0.8-2.133 0.6667-3.2 2.5334-4.4 7.6-3.2 13.467-12.4 20.933-26 20.933-12.133 0-22.133-7.8667-25.333-20-1.067-3.8667-2.667-7.6001-3.6-8.1334-0.934-0.6667-11.2-1.2-22.8-1.2-23.2 0-22-0.4-24.134 9.4667-2 9.0666-11.6 17.733-21.733 19.333-14.267 2.1333-26.533-7.0667-30.267-22.8-0.533-2.1333-1.733-4.4-2.533-4.9333-0.933-0.5334-11.067-1.0667-22.533-1.0667-20.134 0-20.934 0.1333-22.934 2.9333-1.2 1.6-2.133 4.2667-2.133 5.7334 0 5.4666-6.933 14-14.267 17.467-6.133 3.0667-8 3.3334-15.066 2.5334-7.067-0.8-8.667-1.6-13.867-6.6667-4.4-4.1333-6.133-7.0667-6.8-11.333-1.733-10.133-3.067-10.667-27.2-10.667-23.6 0-22.933-0.2667-26 9.7333-4.133 13.867-12.933 20.267-27.067 19.333-7.866-0.5334-8.8-0.9334-14.266-6.2667-3.334-3.2-7.2-8.6667-8.667-12.133-4.2667-9.7334-4.6667-9.8667-27.067-10.533-11.333-0.2666-20.533 0.1333-21.2 0.8-1.3333 1.3333-1.8666 47.467-0.6666 49.6 0.5333 0.6667 4.1333 2 8.2666 2.8001 20.4 4.2669 27.067 26 13.067 42.667-4 4.666-8.1333 6.666-15.2 7.333-7.4667 0.667-8.1333 2.933-7.7333 24.4 0.1333 12.667 0.8 20 2 21.467 0.9333 1.333 4 2.8 6.9333 3.2 8.4 1.066 14.667 5.733 18.267 13.466 4.1333 8.934 4 14.667-0.4 23.6-4.1334 8-11.333 13.2-18.667 13.2-7.8667 0-8.4 1.867-8.4 25.334 0 23.466 0.6667 25.333 8.2667 25.333 6.4 0 15.333 5.867 18.533 12.267 3.8667 7.6 3.8667 17.866 0.1333 24-4.8 7.733-9.3333 11.466-16.267 13.066-3.6 0.8-7.3334 2.534-8.1334 3.6-1.2 1.334-1.7333 8-1.8666 20.8-0.2667 21.867 0.6666 24.934 7.8666 24.934 5.2 0 11.733 4.133 17.067 10.8 4.5333 5.733 6.2667 16.666 3.8667 24.266-1.6 4.8-12 15.467-15.067 15.734-6.6667 0.266-11.333 1.466-12.533 3.2-2.2667 2.933-1.3334 43.333 1.0666 44.8 0.9334 0.666 3.8667 1.2 6.5334 1.2 11.067 0 21.2 12.933 21.2 26.933 0 6-0.6667 8.267-4 12.933-4.8 6.534-11.2 10.8-16.133 10.8-2 0-4.9333 1.2-6.6666 2.534-3.2 2.533-3.2 2.533-3.2 34.933-0.1334 36.8 0.1333 39.467 3.3333 41.2 2.8 1.467 36.8 2 40.4 0.533 1.4667-0.533 4.5333-5.2 6.9333-10.533 5.1997-11.467 10.534-15.467 21.467-16.4 12.933-1.067 23.867 6.8 28.4 20.533l2.133 6.534 21.334 0.4c11.733 0.133 22.666 0 24.133-0.4 2-0.4 3.333-2.267 4.267-6.4 2-7.6 6.533-14.134 12.266-17.467 5.6-3.333 18.4-3.733 25.067-0.933 5.067 2.133 12 11.333 13.2 17.733 1.333 7.733 1.467 7.733 25.067 7.733 24 0 22.8 0.4 26.533-9.466 4.4-12 13.2-18.534 25.067-18.534 11.466 0 22.133 8.134 24.533 18.534 0.533 1.866 1.733 4.8 2.667 6.533 1.866 2.8 2.533 2.933 23.066 2.933 18.667 0 21.334-0.266 23.2-2.4 1.334-1.333 2.267-3.2 2.267-4.133 0-4 7.467-15.067 11.867-17.867 3.866-2.4 6.8-2.933 14.8-2.933 9.066 0 10.4 0.4 15.066 4 5.867 4.533 8.267 8.667 9.6 15.6 0.534 2.8 1.734 5.6 2.534 6.4 2.4 1.867 42.533 1.867 46 0 1.6-0.8 3.066-3.067 3.6-5.067 1.466-6.933 3.466-10.666 7.6-14.533 6.133-5.733 11.733-7.6 20.8-6.667 13.2 1.2 19.333 6.134 23.066 18.934 2.534 8.933 1.867 8.666 26.4 8.666 19.2 0 22.534-0.266 23.2-2.133 0.4-1.2 0.8-18.133 0.8-37.733 0-32.934-0.133-35.867-2.4-37.867-1.333-1.333-3.6-2.267-5.066-2.267-5.334-0.133-13.734-5.2-17.334-10.533-5.2-8-5.733-15.733-1.333-24.533 4.267-8.934 6.133-10.534 16.133-14.534 6.667-2.666 8.134-3.866 8.8-7.2 1.467-6.4 1.334-36.533-0.133-39.066-0.8-1.6-3.467-2.8-7.2-3.334-13.067-2-21.333-12.8-20.533-26.8 0.4-6.4 1.333-9.333 4.4-13.733 4-5.733 12.533-10.933 17.6-10.933 6.4 0 7.2-2.8 6.933-24.934-0.133-14.933-0.667-21.066-1.867-22.266-1.066-0.934-4.533-2.134-8-2.534-3.466-0.533-7.866-2.133-10-3.6-7.733-5.466-11.6-20.4-7.866-30.266 2.933-7.734 14.4-16.267 22.133-16.4 1.6 0 3.333-0.667 3.733-1.334 1.6-2.533 2.267-39.2 0.934-42.8-1.067-2.8-2.8-3.866-8.267-5.2-12.4-2.933-20-12.666-20-25.333 0-12.133 7.2-21.067 20-24.8 4-1.2 7.733-2.933 8.267-3.733 0.533-0.8 1.066-10.267 1.066-21.067 0-22.4 0-22.4-11.2-25.6-5.066-1.467-8.4-3.6-11.466-6.933-5.334-6.134-6.667-9.734-6.667-17.6 0.133-12.667 9.067-24.267 18.8-24.267 2.533 0 5.867-0.9334 7.333-2 2.667-1.8667 2.8-3.0668 2.934-25.333 0-22.533-0.134-23.467-2.934-25.333-1.466-0.9334-4.266-1.6-6.133-1.6-1.867 0.1333-11.067 0.5333-20.4 0.9333zm-495.87 12.8c2.5334 0.4 4.2667 1.4666 4.2667 2.6667 0 3.7333 5.3333 12.4 9.6 15.6 11.733 8.6666 25.467 12.667 34.533 10.267 12.4-3.3334 20.934-10.4 26.534-21.867 3.333-6.9334 5.866-7.8667 20-7.2001l8.666 0.4001 3.734 7.3333c4.933 9.4667 9.333 14.133 17.6 18.267 15.2 7.8667 32.933 4.6667 45.466-8.1333 4.134-4.2666 7.067-8.6666 7.6-11.2 0.667-2.9333 2-4.6667 4.267-5.5999 3.867-1.4667 19.2-1.8667 22.533-0.5334 1.2 0.4 4 4.4 6.4 8.8 4.134 7.8667 11.6 15.067 18.534 18 16.266 6.9333 37.866 0.1333 47.466-14.933 7.6-12 8.534-12.667 18.267-12.667 4.667 0 9.6 0.4 10.667 0.8 1.2 0.5334 3.466 3.7333 5.066 7.3333 3.6 8.5334 13.6 17.6 22.667 20.667 8.133 2.6667 22.267 2 28.667-1.3333 6.8-3.4667 13.066-9.6 17.866-17.2 6.134-9.7333 6.934-10.267 18.534-10.267s13.6 1.0667 16 8.2666c2 6.5334 11.6 14.933 20.8 18.4 19.733 7.3333 39.466 0.2666 47.733-17.067 2.267-4.6667 5.067-8.5333 6.533-9.0667 1.467-0.4 6.934-0.4 12.4 0.1334l9.734 0.9333 0.4 12.8c0.533 14.4-0.4 17.6-4.667 17.6-3.467 0.1333-11.067 5.6-16.133 11.6-5.334 6.2663-7.734 13.466-7.734 22.666-0.133 14.534 9.6 29.6 22.4 35.2l5.867 2.4v25.2l-3.867 0.667c-6.933 1.467-15.2 9.067-20 18.667-3.866 7.6-4.666 10.4-4.533 17.6 0.133 14.666 7.6 26.4 21.467 33.866l6.266 3.467 0.4 12.267 0.4 12.133-8.133 4.4c-23.6 12.533-28 40.133-9.467 60.4 1.867 2 5.867 4.8 8.8 6.133 2.934 1.2 6.134 3.2 6.934 4.134 1.333 1.6 2.266 13.733 1.866 22.666-0.133 1.334-2.8 3.467-6.133 5.067-14.267 6.667-22.267 19.733-22.133 36 0.266 16.133 8.133 28.933 21.466 34.667 6.4 2.8 6.667 3.066 6.8 8.533 0 3.067 0.134 8.267 0.267 11.467 0.267 5.866 0.267 5.866-7.067 9.6-13.466 6.933-21.333 19.6-21.333 34.666 0 15.067 6.933 26.667 20 33.2l8 4v56h-24l-3.733-6.133c-8.267-14.133-13.867-18.533-26.667-21.2-8.133-1.733-10.133-1.733-16.933 0-9.334 2.533-17.734 9.067-24.8 19.6l-5.334 7.733h-24.666l-4.534-7.466c-7.866-13.067-22.133-21.867-35.333-21.867s-28.267 9.333-34.933 21.733l-3.734 6.934-11.2 0.4c-12.8 0.4-13.866-0.134-20-11.2-5.2-8.934-10.8-13.2-21.466-16-18.534-4.667-35.734 3.2-45.467 20.933l-3.2 5.867-10 0.4c-13.867 0.533-15.2 0-19.733-8.267-9.334-16.4-28.667-24.4-45.334-18.933-9.066 3.066-15.6 8.4-22.133 18.533l-5.467 8.267-12.8 0.4-12.666 0.4-4-7.6c-4.934-9.6-13.867-16.934-23.334-19.2-13.066-3.2-27.6-0.134-36.8 7.733-4.1333 3.6-9.7333 12.267-9.7333 14.933 0 3.2-2.6667 4-13.333 4-14.4 0-13.333 2.267-13.333-28.8v-27.066l5.8667-2.534c14.533-6.533 22.133-18.133 22.133-33.866 0-15.2-7.7333-28-21.067-34.934-2-1.066-4.5334-2.8-5.3334-3.866-1.7333-2-2.6666-20.8-1.0666-23.334 0.5333-0.8 3.0666-2.533 5.7333-3.733 7.4667-3.6 17.067-14.133 19.6-21.333 3.2-9.467 2.8-20.667-1.0667-28.934-3.6-8-8-12.4-17.467-17.866l-6.6667-3.867v-23.867l6.6667-3.6c18.533-10 26.533-30.266 19.333-49.333-3.2-8.667-11.467-17.2-20.267-21.067l-6.4-2.8-0.1333-10.533c-0.1333-5.867-0.2667-11.333-0.4-12.133s2.5333-2.534 5.7333-3.867c14.667-5.733 23.333-18.933 23.333-36 0.1333-16.933-7.6-29.2-22.4-35.867l-6.1334-2.666v-22.8l6.5334-3.2c7.8666-4.134 16.667-13.734 19.2-21.2 0.9333-3.067 2-9.067 2.1333-13.2 0.5333-13.734-9.7333-29.867-23.6-37.334l-4.2667-2.2667v-12c0-6.5334-0.4-12.933-0.8-14-0.8-1.8667 0.4-2.1333 8.9334-1.4666 5.4666 0.3999 11.867 1.0666 14.267 1.4666z" fill="#2F4156"/>
<path d="m432.67 159.67 21.484 11.19 17.008 16.113 10.742 42.968v101.15l-30.883 68.928-70.271 42.968-62.214 12.085-71.613-12.085-42.969 34.017-39.835 12.532-30.435-4.028 66.69-75.642-34.464-9.847 157.55-152.63 36.702-70.271 29.989-17.456h42.52z" fill="#FFD44D"/>
<path d="m389.88 153.11c-27.571 9.309-44.639 27.81-54.187 58.484-0.836 2.626-3.7 9.31-6.326 14.92-4.058 8.832-6.446 11.816-17.426 22.677-17.426 17.307-54.665 53.472-66.959 65.049-43.684 41.417-85.101 81.282-85.936 83.072-3.82 7.161 1.074 10.265 19.574 12.532 7.162 0.955 13.249 1.91 13.607 2.268 1.193 1.194-6.565 9.549-32.226 34.016-31.749 30.556-33.42 32.465-32.943 38.194 0.358 3.7 1.075 4.536 6.326 7.162 5.61 2.745 7.162 2.984 23.871 2.984 18.859-0.12 21.007-0.478 35.807-6.923 11.816-5.013 24.11-13.607 40.223-27.81 7.639-6.803 14.681-12.413 15.755-12.413s7.52 1.552 14.323 3.461c6.922 2.029 18.023 4.178 24.826 4.894s13.368 1.552 14.8 1.79c2.745 0.597 26.139 34.614 24.945 36.404-0.358 0.597-5.371 0.955-11.219 0.835-11.458-0.238-14.442 0.955-14.442 5.849 0 6.087 2.626 6.445 37.597 6.445 34.733-0.119 36.404-0.477 36.404-6.565 0-5.013-2.865-5.967-18.023-5.967-7.878-0.12-14.562-0.597-15.158-1.194-0.478-0.716-5.252-7.519-10.384-15.277-5.252-7.759-10.265-15.159-11.1-16.352-1.91-2.626-1.91-2.626 19.813-4.774l13.606-1.313 2.268 2.983c1.194 1.552 5.61 6.923 9.668 11.817 12.293 14.561 16.829 20.171 22.081 27.213l5.013 6.803 19.455 0.478c21.364 0.477 24.826-0.239 24.826-5.61 0-5.729-2.387-6.565-19.455-6.565-10.265 0-16.71-0.596-18.381-1.551-2.626-1.433-25.423-28.168-29.362-34.375-2.148-3.342-2.148-3.461 0-4.177 7.52-2.626 29.72-11.458 30.794-12.294 0.597-0.477 4.894-2.984 9.429-5.49 16.113-8.713 32.584-22.32 43.684-36.046 14.323-17.784 26.02-43.326 30.556-66.959 2.267-11.816 2.148-38.313-0.239-55.023-1.671-11.338-1.79-14.919-0.597-21.722 0.836-4.536 2.387-8.833 3.581-9.907 1.193-1.074 6.326-2.268 13.129-3.103 13.01-1.432 15.874-2.626 15.397-6.326-0.239-1.432-0.716-2.387-1.074-2.029-0.478 0.358-1.791-0.239-2.984-1.313-1.313-1.074-7.4-3.103-13.607-4.655-13.01-2.984-16.71-4.297-16.71-5.848 0-0.955 14.204-10.504 30.675-20.888 6.087-3.7 8.355-7.28 6.326-9.667-0.836-0.955-1.791-1.671-2.149-1.552-0.477 0.119-1.79-0.239-3.103-0.836-1.194-0.477-9.19-0.238-17.784 0.597-14.681 1.313-15.755 1.313-16.949-0.716-3.7-6.326-12.89-17.187-18.022-21.126-7.639-5.968-19.336-11.816-29.601-15.039-11.935-3.7-30.435-3.461-42.013 0.478zm34.613 8.474c18.978 2.984 41.178 19.574 46.669 35.091 1.671 4.654 1.671 5.729 0.119 9.667-3.103 7.52 0.597 22.081 6.923 27.214 1.432 1.193 1.312 2.387-0.717 7.638-3.222 7.997-4.296 27.094-2.148 36.404 0.955 4.177 1.552 14.8 1.432 27.81 0 19.813-0.238 21.961-3.819 34.494-10.145 36.881-25.184 57.052-59.32 79.849-27.691 18.5-50.01 26.258-81.759 28.287-18.858 1.313-49.771-2.148-66.481-7.519-9.549-2.984-20.649-3.581-24.826-1.194-1.432 0.836-7.281 5.729-13.129 11.1-15.755 14.323-22.2 18.978-34.136 24.946-12.652 6.206-23.752 8.951-37.239 8.951-10.623 0-14.92-0.835-14.92-2.864 0-0.716 11.817-13.01 26.378-27.333 14.561-14.322 29.242-29.361 32.823-33.3l6.326-7.161 31.987-0.358c17.545-0.12 34.136-0.597 36.762-1.075 2.626-0.358 7.161-0.954 10.145-1.432 7.4-0.955 26.258-5.729 36.404-9.31 40.342-13.964 67.913-39.387 79.371-73.404 3.104-9.309 4.536-29.003 2.387-32.942-1.671-3.222-6.803-4.177-7.758-1.551-0.358 0.835-0.716 6.087-1.074 11.696-0.835 18.859-8.235 35.927-22.439 51.92-10.264 11.578-17.784 17.426-30.913 24.349-14.323 7.519-28.287 12.413-46.071 16.113-21.484 4.416-34.375 5.61-62.782 5.61-24.229 0-31.032-0.478-52.516-3.82l-7.997-1.313 4.535-4.296c2.507-2.507 17.665-17.068 33.778-32.585 15.994-15.516 40.104-38.313 53.591-50.607 13.487-12.413 28.765-26.855 34.016-32.226 5.252-5.251 13.726-13.367 18.978-17.903 9.31-8.236 17.784-18.858 21.245-26.855 1.075-2.268 4.655-11.458 8.117-20.291 6.325-16.113 11.1-24.826 17.426-31.868 15.516-16.948 35.806-23.632 60.632-19.932z" fill="#2F4156"/>
<path d="m418.41 199.06c-4.058 2.387-6.087 8.116-4.655 13.607 2.029 8.355 11.1 11.458 18.739 6.325 3.819-2.625 4.058-3.103 4.058-9.667-0.119-6.326-0.477-7.281-3.581-9.788-4.297-3.461-9.429-3.7-14.561-0.477z" fill="#2F4156"/>
</svg>