<?xml version="1.0" encoding="UTF-8"?>
<svg viewBox="0 0 562 585" xmlns="http://www.w3.org/2000/svg">
<path d="m531.6 1.9333c-17.867 0.66667-19.467 1.3334-19.6 7.3334-0.133 4.9333-6 13.333-12.533 17.6-15.2 10.267-34.8 2.1334-39.6-16.267-0.8-2.9334-2.4-6.1333-3.6-7.0667-2.134-1.6-38-2.4-43.867-0.80005-2.133 0.66666-3.2 2.5334-4.4 7.6-3.2 13.467-12.4 20.933-26 20.933-12.133 0-22.133-7.8667-25.333-20-1.067-3.8667-2.667-7.6001-3.6-8.1334-0.934-0.66667-11.2-1.2-22.8-1.2-23.2 0-22-0.39999-24.134 9.4667-2 9.0666-11.6 17.733-21.733 19.333-14.267 2.1333-26.533-7.0667-30.267-22.8-0.533-2.1333-1.733-4.4-2.533-4.9333-0.933-0.53333-11.067-1.0667-22.533-1.0667-20.134 0-20.934 0.13335-22.934 2.9334-1.2 1.6-2.133 4.2667-2.133 5.7334 0 5.4666-6.933 14-14.267 17.467-6.133 3.0666-8 3.3333-15.066 2.5333-7.067-0.8-8.667-1.6-13.867-6.6667-4.4-4.1333-6.133-7.0667-6.8-11.333-1.733-10.133-3.067-10.667-27.2-10.667-23.6 0-22.933-0.26666-26 9.7333-4.1333 13.867-12.933 20.267-27.067 19.333-7.8666-0.5333-8.8-0.9334-14.267-6.2667-3.3334-3.2-7.2-8.6667-8.6667-12.133-4.2667-9.7334-4.6667-9.8667-27.067-10.533-11.333-0.26667-20.533 0.13332-21.2 0.79999-1.3333 1.3333-1.8667 47.467-0.66666 49.6 0.53333 0.6667 4.1333 2.0001 8.2666 2.8001 20.4 4.2666 27.067 26 13.067 42.667-4 4.6667-8.1333 6.6667-15.2 7.3337-7.4667 0.666-8.1333 2.933-7.7333 24.4 0.13333 12.666 0.8 20 2 21.466 0.93333 1.334 4 2.8 6.9333 3.2 8.4 1.067 14.667 5.734 18.267 13.467 4.1333 8.933 4 14.667-0.4 23.6-4.1334 8-11.333 13.2-18.667 13.2-7.8667 0-8.4 1.867-8.4 25.333 0 23.467 0.66667 25.334 8.2667 25.334 6.4 0 15.333 5.866 18.533 12.266 3.8667 7.6 3.8667 17.867 0.1333 24-4.8 7.734-9.3333 11.467-16.267 13.067-3.6 0.8-7.3334 2.533-8.1334 3.6-1.2 1.333-1.7333 8-1.8667 20.8-0.26667 21.867 0.66666 24.933 7.8667 24.933 5.2 0 11.733 4.134 17.067 10.8 4.5333 5.734 6.2667 16.667 3.8667 24.267-1.6 4.8-12 15.467-15.067 15.733-6.6667 0.267-11.333 1.467-12.533 3.2-2.2667 2.934-1.3333 43.334 1.0667 44.8 0.93334 0.667 3.8667 1.2 6.5333 1.2 11.067 0 21.2 12.934 21.2 26.934 0 6-0.6667 8.266-4 12.933-4.8 6.533-11.2 10.8-16.133 10.8-2 0-4.9333 1.2-6.6666 2.533-3.2 2.534-3.2 2.534-3.2 34.934-0.13333 36.8 0.13333 39.466 3.3333 41.2 2.8 1.466 36.8 2 40.4 0.533 1.4667-0.533 4.5333-5.2 6.9333-10.533 5.2-11.467 10.533-15.467 21.467-16.4 12.933-1.067 23.867 6.8 28.4 20.533l2.133 6.533 21.334 0.4c11.733 0.134 22.666 0 24.133-0.4 2-0.4 3.333-2.266 4.267-6.4 2-7.6 6.533-14.133 12.266-17.466 5.6-3.334 18.4-3.734 25.067-0.934 5.067 2.134 12 11.334 13.2 17.734 1.333 7.733 1.467 7.733 25.067 7.733 24 0 22.8 0.4 26.533-9.467 4.4-12 13.2-18.533 25.067-18.533 11.466 0 22.133 8.133 24.533 18.533 0.533 1.867 1.733 4.8 2.667 6.534 1.866 2.8 2.533 2.933 23.066 2.933 18.667 0 21.334-0.267 23.2-2.4 1.334-1.333 2.267-3.2 2.267-4.133 0-4 7.467-15.067 11.867-17.867 3.866-2.4 6.8-2.933 14.8-2.933 9.066 0 10.4 0.4 15.066 4 5.867 4.533 8.267 8.666 9.6 15.6 0.534 2.8 1.734 5.6 2.534 6.4 2.4 1.866 42.533 1.866 46 0 1.6-0.8 3.066-3.067 3.6-5.067 1.466-6.933 3.466-10.667 7.6-14.533 6.133-5.734 11.733-7.6 20.8-6.667 13.2 1.2 19.333 6.133 23.066 18.933 2.534 8.934 1.867 8.667 26.4 8.667 19.2 0 22.534-0.267 23.2-2.133 0.4-1.2 0.8-18.134 0.8-37.734 0-32.933-0.133-35.866-2.4-37.866-1.333-1.334-3.6-2.267-5.066-2.267-5.334-0.133-13.734-5.2-17.334-10.533-5.2-8-5.733-15.734-1.333-24.534 4.267-8.933 6.133-10.533 16.133-14.533 6.667-2.667 8.134-3.867 8.8-7.2 1.467-6.4 1.334-36.533-0.133-39.067-0.8-1.6-3.467-2.8-7.2-3.333-13.067-2-21.333-12.8-20.533-26.8 0.4-6.4 1.333-9.333 4.4-13.733 4-5.734 12.533-10.934 17.6-10.934 6.4 0 7.2-2.8 6.933-24.933-0.133-14.933-0.667-21.067-1.867-22.267-1.066-0.933-4.533-2.133-8-2.533-3.466-0.533-7.866-2.133-10-3.6-7.733-5.467-11.6-20.4-7.866-30.267 2.933-7.733 14.4-16.266 22.133-16.4 1.6 0 3.333-0.666 3.733-1.333 1.6-2.533 2.267-39.2 0.934-42.8-1.067-2.8-2.8-3.867-8.267-5.2-12.4-2.933-20-12.667-20-25.333 0-12.134 7.2-21.067 20-24.8 4-1.2 7.733-2.934 8.267-3.734 0.533-0.8 1.066-10.266 1.066-21.066 0-22.4 0-22.4-11.2-25.6-5.066-1.467-8.4-3.6-11.466-6.9337-5.334-6.1333-6.667-9.7333-6.667-17.6 0.133-12.667 9.067-24.267 18.8-24.267 2.533 0 5.867-0.9334 7.333-2 2.667-1.8667 2.8-3.0667 2.934-25.333 0-22.533-0.134-23.467-2.934-25.333-1.466-0.93334-4.266-1.6-6.133-1.6-1.867 0.13333-11.067 0.53329-20.4 0.93329z" fill="#fff"/>
<path d="m531.6 1.6667c-17.867 0.66667-19.467 1.3333-19.6 7.3333-0.133 4.9334-6 13.333-12.533 17.6-15.2 10.267-34.8 2.1334-39.6-16.267-0.8-2.9334-2.4-6.1334-3.6-7.0667-2.134-1.6-38-2.4-43.867-0.8-2.133 0.66667-3.2 2.5333-4.4 7.6-3.2 13.467-12.4 20.933-26 20.933-12.133 0-22.133-7.8666-25.333-20-1.067-3.8666-2.667-7.6-3.6-8.1333-0.934-0.66667-11.2-1.2-22.8-1.2-23.2 0-22-0.4-24.134 9.4667-2 9.0666-11.6 17.733-21.733 19.333-14.267 2.1333-26.533-7.0667-30.267-22.8-0.533-2.1333-1.733-4.4-2.533-4.9333-0.933-0.53334-11.067-1.0667-22.533-1.0667-20.134 0-20.934 0.13333-22.934 2.9333-1.2 1.6-2.133 4.2667-2.133 5.7334 0 5.4666-6.933 14-14.267 17.467-6.133 3.0667-8 3.3334-15.066 2.5334-7.067-0.8-8.667-1.6-13.867-6.6667-4.4-4.1333-6.133-7.0667-6.8-11.333-1.733-10.133-3.067-10.667-27.2-10.667-23.6 0-22.933-0.26667-26 9.7333-4.1333 13.867-12.933 20.267-27.067 19.333-7.8666-0.5334-8.8-0.9334-14.267-6.2667-3.3334-3.2-7.2-8.6667-8.6667-12.133-4.2667-9.7334-4.6667-9.8667-27.067-10.533-11.333-0.26666-20.533 0.13334-21.2 0.8-1.3333 1.3333-1.8667 47.467-0.66666 49.6 0.53333 0.6667 4.1333 2 8.2666 2.8 20.4 4.2667 27.067 26 13.067 42.667-4 4.6663-8.1333 6.6663-15.2 7.3333-7.4667 0.667-8.1333 2.933-7.7333 24.4 0.13333 12.667 0.8 20 2 21.467 0.93333 1.333 4 2.8 6.9333 3.2 8.4 1.066 14.667 5.733 18.267 13.466 4.1333 8.934 4 14.667-0.4 23.6-4.1334 8-11.333 13.2-18.667 13.2-7.8667 0-8.4 1.867-8.4 25.334 0 23.466 0.66667 25.333 8.2667 25.333 6.4 0 15.333 5.867 18.533 12.267 3.8667 7.6 3.8667 17.866 0.1333 24-4.8 7.733-9.3333 11.466-16.267 13.066-3.6 0.8-7.3334 2.534-8.1334 3.6-1.2 1.334-1.7333 8-1.8667 20.8-0.26667 21.867 0.66666 24.934 7.8667 24.934 5.2 0 11.733 4.133 17.067 10.8 4.5333 5.733 6.2667 16.666 3.8667 24.266-1.6 4.8-12 15.467-15.067 15.734-6.6667 0.266-11.333 1.466-12.533 3.2-2.2667 2.933-1.3333 43.333 1.0667 44.8 0.93334 0.666 3.8667 1.2 6.5333 1.2 11.067 0 21.2 12.933 21.2 26.933 0 6-0.6667 8.267-4 12.933-4.8 6.534-11.2 10.8-16.133 10.8-2 0-4.9333 1.2-6.6666 2.534-3.2 2.533-3.2 2.533-3.2 34.933-0.13333 36.8 0.13333 39.467 3.3333 41.2 2.8 1.467 36.8 2 40.4 0.533 1.4667-0.533 4.5333-5.2 6.9333-10.533 5.2-11.467 10.533-15.467 21.467-16.4 12.933-1.067 23.867 6.8 28.4 20.533l2.133 6.534 21.334 0.4c11.733 0.133 22.666 0 24.133-0.4 2-0.4 3.333-2.267 4.267-6.4 2-7.6 6.533-14.134 12.266-17.467 5.6-3.333 18.4-3.733 25.067-0.933 5.067 2.133 12 11.333 13.2 17.733 1.333 7.733 1.467 7.733 25.067 7.733 24 0 22.8 0.4 26.533-9.466 4.4-12 13.2-18.534 25.067-18.534 11.466 0 22.133 8.134 24.533 18.534 0.533 1.866 1.733 4.8 2.667 6.533 1.866 2.8 2.533 2.933 23.066 2.933 18.667 0 21.334-0.266 23.2-2.4 1.334-1.333 2.267-3.2 2.267-4.133 0-4 7.467-15.067 11.867-17.867 3.866-2.4 6.8-2.933 14.8-2.933 9.066 0 10.4 0.4 15.066 4 5.867 4.533 8.267 8.667 9.6 15.6 0.534 2.8 1.734 5.6 2.534 6.4 2.4 1.867 42.533 1.867 46 0 1.6-0.8 3.066-3.067 3.6-5.067 1.466-6.933 3.466-10.666 7.6-14.533 6.133-5.733 11.733-7.6 20.8-6.667 13.2 1.2 19.333 6.134 23.066 18.934 2.534 8.933 1.867 8.666 26.4 8.666 19.2 0 22.534-0.266 23.2-2.133 0.4-1.2 0.8-18.133 0.8-37.733 0-32.934-0.133-35.867-2.4-37.867-1.333-1.333-3.6-2.267-5.066-2.267-5.334-0.133-13.734-5.2-17.334-10.533-5.2-8-5.733-15.733-1.333-24.533 4.267-8.934 6.133-10.534 16.133-14.534 6.667-2.666 8.134-3.866 8.8-7.2 1.467-6.4 1.334-36.533-0.133-39.066-0.8-1.6-3.467-2.8-7.2-3.334-13.067-2-21.333-12.8-20.533-26.8 0.4-6.4 1.333-9.333 4.4-13.733 4-5.733 12.533-10.933 17.6-10.933 6.4 0 7.2-2.8 6.933-24.934-0.133-14.933-0.667-21.066-1.867-22.266-1.066-0.934-4.533-2.134-8-2.534-3.466-0.533-7.866-2.133-10-3.6-7.733-5.466-11.6-20.4-7.866-30.266 2.933-7.734 14.4-16.267 22.133-16.4 1.6 0 3.333-0.667 3.733-1.334 1.6-2.533 2.267-39.2 0.934-42.8-1.067-2.8-2.8-3.866-8.267-5.2-12.4-2.933-20-12.666-20-25.333 0-12.133 7.2-21.067 20-24.8 4-1.2 7.733-2.933 8.267-3.733 0.533-0.8 1.066-10.267 1.066-21.067 0-22.4 0-22.4-11.2-25.6-5.066-1.467-8.4-3.6-11.466-6.9333-5.334-6.1333-6.667-9.7333-6.667-17.6 0.133-12.667 9.067-24.267 18.8-24.267 2.533 0 5.867-0.9333 7.333-2 2.667-1.8666 2.8-3.0666 2.934-25.333 0-22.533-0.134-23.467-2.934-25.333-1.466-0.93334-4.266-1.6-6.133-1.6-1.867 0.13333-11.067 0.53333-20.4 0.93333zm-495.87 12.8c2.5334 0.4 4.2667 1.4667 4.2667 2.6667 0 3.7333 5.3333 12.4 9.6 15.6 11.733 8.6666 25.467 12.667 34.533 10.267 12.4-3.3333 20.934-10.4 26.534-21.867 3.333-6.9334 5.866-7.8667 20-7.2l8.666 0.4 3.734 7.3333c4.933 9.4667 9.333 14.133 17.6 18.267 15.2 7.8666 32.933 4.6666 45.466-8.1334 4.134-4.2666 7.067-8.6666 7.6-11.2 0.667-2.9333 2-4.6666 4.267-5.6 3.867-1.4666 19.2-1.8666 22.533-0.5333 1.2 0.4 4 4.4 6.4 8.8 4.134 7.8667 11.6 15.067 18.534 18 16.266 6.9333 37.866 0.1333 47.466-14.933 7.6-12 8.534-12.667 18.267-12.667 4.667 0 9.6 0.4 10.667 0.8 1.2 0.5333 3.466 3.7333 5.066 7.3333 3.6 8.5334 13.6 17.6 22.667 20.667 8.133 2.6667 22.267 2 28.667-1.3333 6.8-3.4667 13.066-9.6 17.866-17.2 6.134-9.7334 6.934-10.267 18.534-10.267s13.6 1.0667 16 8.2667c2 6.5333 11.6 14.933 20.8 18.4 19.733 7.3333 39.466 0.2666 47.733-17.067 2.267-4.6667 5.067-8.5333 6.533-9.0667 1.467-0.4 6.934-0.4 12.4 0.1334l9.734 0.9333 0.4 12.8c0.533 14.4-0.4 17.6-4.667 17.6-3.467 0.1333-11.067 5.6-16.133 11.6-5.334 6.2667-7.734 13.467-7.734 22.667-0.133 14.533 9.6 29.6 22.4 35.2l5.867 2.4v25.2l-3.867 0.667c-6.933 1.467-15.2 9.067-20 18.667-3.866 7.6-4.666 10.4-4.533 17.6 0.133 14.666 7.6 26.4 21.467 33.866l6.266 3.467 0.4 12.267 0.4 12.133-8.133 4.4c-23.6 12.533-28 40.133-9.467 60.4 1.867 2 5.867 4.8 8.8 6.133 2.934 1.2 6.134 3.2 6.934 4.134 1.333 1.6 2.266 13.733 1.866 22.666-0.133 1.334-2.8 3.467-6.133 5.067-14.267 6.667-22.267 19.733-22.133 36 0.266 16.133 8.133 28.933 21.466 34.667 6.4 2.8 6.667 3.066 6.8 8.533 0 3.067 0.134 8.267 0.267 11.467 0.267 5.866 0.267 5.866-7.067 9.6-13.466 6.933-21.333 19.6-21.333 34.666 0 15.067 6.933 26.667 20 33.2l8 4v56h-24l-3.733-6.133c-8.267-14.133-13.867-18.533-26.667-21.2-8.133-1.733-10.133-1.733-16.933 0-9.334 2.533-17.734 9.067-24.8 19.6l-5.334 7.733h-24.666l-4.534-7.466c-7.866-13.067-22.133-21.867-35.333-21.867s-28.267 9.333-34.933 21.733l-3.734 6.934-11.2 0.4c-12.8 0.4-13.866-0.134-20-11.2-5.2-8.934-10.8-13.2-21.466-16-18.534-4.667-35.734 3.2-45.467 20.933l-3.2 5.867-10 0.4c-13.867 0.533-15.2 0-19.733-8.267-9.334-16.4-28.667-24.4-45.334-18.933-9.066 3.066-15.6 8.4-22.133 18.533l-5.467 8.267-12.8 0.4-12.666 0.4-4-7.6c-4.934-9.6-13.867-16.934-23.334-19.2-13.067-3.2-27.6-0.134-36.8 7.733-4.1333 3.6-9.7333 12.267-9.7333 14.933 0 3.2-2.6667 4-13.333 4-14.4 0-13.333 2.267-13.333-28.8v-27.066l5.8667-2.534c14.533-6.533 22.133-18.133 22.133-33.866 0-15.2-7.7333-28-21.067-34.934-2-1.066-4.5334-2.8-5.3334-3.866-1.7333-2-2.6666-20.8-1.0666-23.334 0.5333-0.8 3.0666-2.533 5.7333-3.733 7.4667-3.6 17.067-14.133 19.6-21.333 3.2-9.467 2.8-20.667-1.0667-28.934-3.6-8-8-12.4-17.467-17.866l-6.6667-3.867v-23.867l6.6667-3.6c18.533-10 26.533-30.266 19.333-49.333-3.2-8.667-11.467-17.2-20.267-21.067l-6.4-2.8-0.1333-10.533c-0.1333-5.867-0.2667-11.333-0.4-12.133s2.5333-2.534 5.7333-3.867c14.667-5.733 23.333-18.933 23.333-36 0.1333-16.933-7.6-29.2-22.4-35.867l-6.1334-2.666v-22.8l6.5334-3.2c7.8666-4.134 16.667-13.734 19.2-21.2 0.9333-3.0667 2-9.0667 2.1333-13.2 0.5333-13.733-9.7333-29.867-23.6-37.333l-4.2667-2.2667v-12c0-6.5333-0.4-12.933-0.8-14-0.8-1.8667 0.4-2.1333 8.9334-1.4667 5.4666 0.4 11.867 1.0667 14.267 1.4667z" fill="#2F4156"/>
<path d="m399 107 24 12.5 19 18 12 48v113l-34.5 77-78.5 48-69.5 13.5-80-13.5-48 38-44.5 14-34-4.5 74.5-84.5-38.5-11 176-170.5 41-78.5 33.5-19.5h47.5z" fill="#FFD44D"/>
<path d="m351.2 99.667c-30.8 10.4-49.867 31.066-60.534 65.333-0.933 2.933-4.133 10.4-7.066 16.667-4.534 9.866-7.2 13.2-19.467 25.333-19.467 19.333-61.067 59.733-74.8 72.667-48.8 46.266-95.067 90.8-96 92.8-4.2667 8 1.2 11.466 21.867 14 8 1.066 14.8 2.133 15.2 2.533 1.333 1.333-7.334 10.667-36 38-35.467 34.133-37.333 36.267-36.8 42.667 0.4 4.133 1.2 5.066 7.0667 8 6.2667 3.066 8 3.333 26.667 3.333 21.067-0.133 23.467-0.533 40-7.733 13.2-5.6 26.933-15.2 44.933-31.067 8.534-7.6 16.4-13.867 17.6-13.867s8.4 1.734 16 3.867c7.734 2.267 20.134 4.667 27.734 5.467s14.933 1.733 16.533 2c3.067 0.666 29.2 38.666 27.867 40.666-0.4 0.667-6 1.067-12.534 0.934-12.8-0.267-16.133 1.066-16.133 6.533 0 6.8 2.933 7.2 42 7.2 38.8-0.133 40.667-0.533 40.667-7.333 0-5.6-3.2-6.667-20.134-6.667-8.8-0.133-16.266-0.667-16.933-1.333-0.533-0.8-5.867-8.4-11.6-17.067-5.867-8.667-11.467-16.933-12.4-18.267-2.133-2.933-2.133-2.933 22.133-5.333l15.2-1.467 2.534 3.334c1.333 1.733 6.266 7.733 10.8 13.2 13.733 16.266 18.8 22.533 24.666 30.4l5.6 7.6 21.734 0.533c23.866 0.533 27.733-0.267 27.733-6.267 0-6.4-2.667-7.333-21.733-7.333-11.467 0-18.667-0.667-20.534-1.733-2.933-1.6-28.4-31.467-32.8-38.4-2.4-3.734-2.4-3.867 0-4.667 8.4-2.933 33.2-12.8 34.4-13.733 0.667-0.534 5.467-3.334 10.534-6.134 18-9.733 36.4-24.933 48.8-40.266 16-19.867 29.066-48.4 34.133-74.8 2.533-13.2 2.4-42.8-0.267-61.467-1.866-12.667-2-16.667-0.666-24.267 0.933-5.066 2.666-9.866 4-11.066 1.333-1.2 7.066-2.534 14.666-3.467 14.534-1.6 17.734-2.933 17.2-7.067-0.266-1.6-0.8-2.666-1.2-2.266-0.533 0.4-2-0.267-3.333-1.467-1.467-1.2-8.267-3.467-15.2-5.2-14.533-3.333-18.667-4.8-18.667-6.533 0-1.067 15.867-11.734 34.267-23.334 6.8-4.133 9.333-8.133 7.067-10.8-0.934-1.066-2-1.866-2.4-1.733-0.534 0.133-2-0.267-3.467-0.933-1.333-0.534-10.267-0.267-19.867 0.666-16.4 1.467-17.6 1.467-18.933-0.8-4.133-7.066-14.4-19.2-20.133-23.6-8.534-6.666-21.6-13.2-33.067-16.8-13.333-4.1333-34-3.8667-46.933 0.5333zm38.666 9.4664c21.2 3.334 46 21.867 52.134 39.2 1.866 5.2 1.866 6.4 0.133 10.8-3.467 8.4 0.667 24.667 7.733 30.4 1.6 1.334 1.467 2.667-0.8 8.534-3.6 8.933-4.8 30.266-2.4 40.666 1.067 4.667 1.734 16.534 1.6 31.067 0 22.133-0.266 24.533-4.266 38.533-11.334 41.2-28.134 63.734-66.267 89.2-30.933 20.667-55.867 29.334-91.333 31.6-21.067 1.467-55.6-2.4-74.267-8.4-10.667-3.333-23.067-4-27.733-1.333-1.6 0.933-8.134 6.4-14.667 12.4-17.6 16-24.8 21.2-38.133 27.867-14.134 6.933-26.534 10-41.6 10-11.867 0-16.667-0.934-16.667-3.2 0-0.8 13.2-14.534 29.467-30.534 16.266-16 32.666-32.8 36.666-37.2l7.067-8 35.733-0.4c19.6-0.133 38.134-0.666 41.067-1.2 2.933-0.4 8-1.066 11.333-1.6 8.267-1.066 29.334-6.4 40.667-10.4 45.067-15.6 75.867-44 88.667-82 3.466-10.4 5.066-32.4 2.666-36.8-1.866-3.6-7.6-4.666-8.666-1.733-0.4 0.933-0.8 6.8-1.2 13.067-0.934 21.066-9.2 40.133-25.067 58-11.467 12.933-19.867 19.466-34.533 27.2-16 8.4-31.6 13.866-51.467 18-24 4.933-38.4 6.266-70.133 6.266-27.067 0-34.667-0.533-58.667-4.266l-8.933-1.467 5.066-4.8c2.8-2.8 19.734-19.067 37.734-36.4 17.866-17.333 44.8-42.8 59.866-56.533 15.067-13.867 32.134-30 38-36 5.867-5.867 15.334-14.934 21.2-20 10.4-9.2 19.867-21.067 23.734-30 1.2-2.534 5.2-12.8 9.066-22.667 7.067-18 12.4-27.733 19.467-35.6 17.333-18.933 40-26.4 67.733-22.267z" fill="#2F4156"/>
<path d="m383.07 151c-4.533 2.667-6.8 9.067-5.2 15.2 2.267 9.334 12.4 12.8 20.934 7.067 4.266-2.933 4.533-3.467 4.533-10.8-0.133-7.067-0.533-8.133-4-10.933-4.8-3.867-10.533-4.134-16.267-0.534z" fill="#2F4156"/>
</svg>
