<?xml version="1.0" encoding="UTF-8"?>
<svg fill="none" viewBox="0 0 957 502" xmlns="http://www.w3.org/2000/svg">
<rect x="591.46" y="486.58" width="365.54" height="14.5" rx="7.2502" fill="#2F4156"/>
<path d="m849.85 225.84c20.133 18.971 30.563 42.307 34.225 68.861 0.598 4.333 2.55 6.256 6.269 7.547 5.117 1.776 9.808 4.401 14.005 7.878 10.399 8.616 11.179 20.75 1.745 30.269-1.872 1.89-2.947 3.758-2.932 6.438 0.068 12.567 0.126 25.135-4e-3 37.7-0.04 3.828 1.502 5.631 5.202 6.487 7.634 1.767 15.24 3.71 22.75 5.939 7.427 2.204 9.023 5.694 5.689 12.43-1.404 2.837-1.274 5.633-1.28 8.506-0.04 21.094-0.022 42.189-0.032 63.283-1e-3 2.019 0.086 4.055-0.135 6.054-0.473 4.265-2.65 7.468-7.164 7.437-4.533-0.032-6.663-3.19-6.895-7.566-0.118-2.239-0.078-4.487-0.078-6.731-2e-3 -21.543-0.164-43.089 0.126-64.628 0.071-5.321-1.951-7.444-6.828-8.804-23.829-6.646-48.209-9.983-72.703-12.747-30.161-3.403-60.445-3.495-90.699-2.556-36.788 1.143-73.25 5.383-109.02 14.49-9.483 2.414-9.154 2.452-9.033 12.327 0.264 21.764 0.185 43.532 0.207 65.299 1e-3 1.558-0.204 3.14-0.517 4.67-0.782 3.814-3.125 5.967-7.094 5.688-3.98-0.28-6.087-2.716-6.151-6.644-0.116-7.179-0.078-14.361-0.076-21.542 4e-3 -14.811 0.042-29.622 0.034-44.433-2e-3 -4.902 0.055-9.62-2.542-14.311-2.541-4.588-0.139-8.388 4.787-9.818 8.169-2.372 16.393-4.61 24.697-6.439 4.055-0.894 5.676-2.763 5.64-6.837-0.109-12.342-0.079-24.686 0.038-37.027 0.029-2.987-1.248-4.866-3.355-6.863-8.666-8.214-8.606-19.442-0.043-27.833 4.557-4.464 9.995-7.628 15.911-9.857 4.07-1.533 5.597-4.108 6.269-8.456 6.86-44.384 30.676-75.24 73.472-90.384 4.738-1.676 6.434-3.922 6.119-8.681-0.311-4.693-0.178-9.424-0.06-14.133 0.11-4.348-0.217-7.82-4.727-10.676-4.848-3.072-2.837-9.672 3.339-10.751 4.412-0.772 6.016-2.695 6.74-6.775 1.073-6.044 4.539-10.862 9.862-13.795 4.22-2.325 5.262-5.498 5.1-9.936-0.254-6.947-0.193-13.914-0.027-20.866 0.109-4.594 0.452-9.5817 6.822-9.492 6.203 0.0872 5.912 4.908 5.92 9.27 0.013 7.406 0.16 14.814-0.011 22.215-0.082 3.512 0.993 5.947 4.101 7.756 3.956 2.301 7.035 5.621 8.948 9.804 2.543 5.56 2.839 12.33 11.664 13.174 4.241 0.405 5.025 6.947 1.064 9.629-4.435 3.004-3.717 6.893-4.398 11.032-2.289 13.902 1.774 22.269 16.683 25.966 10.81 2.68 19.723 10.423 28.375 18.432zm-5.874 14.661c-29.34-28.884-69.349-36.501-105.96-20.172-27.293 12.174-53.07 48.769-51.98 74.748 60.549-12.93 121.13-12.987 183.08-0.158-2.48-21.202-10.434-38.797-25.141-54.418zm40.723 145.35c5.023-0.181 3.9-4.326 3.976-6.982 0.291-10.087-0.192-20.202 0.253-30.278 0.248-5.615-2.115-7.987-7.131-9.447-20.968-6.103-42.464-9.23-64.133-10.758-23.924-1.686-47.888-1.984-71.905-0.59-24.704 1.435-48.999 4.759-72.903 11.163-4.933 1.322-7.007 3.704-6.73 8.939 0.389 7.383 0.121 14.803 0.091 22.206-0.078 19.705-1.223 15.295 16.353 13.676 4.295-0.395 6.261-2.648 6.134-7.123-0.205-7.173-0.153-14.359-8e-3 -21.535 0.094-4.649 2.384-7.935 7.304-7.912 5.102 0.023 6.762 3.404 6.659 8.165-0.14 6.504 0.074 13.014-0.045 19.518-0.068 3.677 1.253 5.469 5.141 5.063 4.901-0.513 9.815-1.107 14.732-1.192 4.617-0.08 6.319-1.994 6.181-6.576-0.236-7.845-0.049-15.703-0.021-23.555 0.014-4.153 1.94-7.12 6.141-7.481 4.547-0.39 7.078 2.481 7.658 6.787 0.387 2.871 0.246 5.82 0.265 8.734 0.147 21.508 0.136 21.384 21.568 20.498 4.734-0.196 6.276-1.979 6.153-6.504-0.212-7.847 0.027-15.704-0.038-23.556-0.042-5.099 2.133-8.44 7.398-8.351 4.938 0.084 6.925 3.439 6.91 8.163-0.023 7.628 0.173 15.261-0.051 22.882-0.129 4.399 1.175 6.773 5.961 6.777 5.152 3e-3 10.316 0.256 15.452 0.672 4.835 0.391 6.282-1.811 6.113-6.346-0.243-6.496 3e-3 -13.01-0.031-19.516-0.026-4.788 1.384-8.869 6.813-8.934 5.721-0.068 7.428 4.078 7.431 9.162 5e-3 7.179 0.026 14.358 0.036 21.538 3e-3 2.582 0.107 5.249 3.57 5.341 6.884 0.183 13.681 2.032 20.573 1.337 1.447-2.783 0.769-5.518 0.897-8.152 0.271-5.59-0.426-11.211 0.647-16.78 0.81-4.203 2.859-7.435 7.49-6.98 4.478 0.44 6.39 3.627 6.178 8.117-0.138 2.911-0.117 5.831-0.125 8.748-0.054 18.315-0.05 18.315 19.043 21.062zm-224.72-64.566c-1.527 1.808-4.279 3.421-2.321 6.204 1.583 2.25 4.052 1.137 6.18 0.431 31.992-10.624 65.199-14.188 98.554-15.05 43.98-1.136 87.802 1.074 130.13 15.081 1.752 0.579 3.629 1.316 4.931-0.441 1.575-2.127 0.017-3.851-1.437-5.253-4.461-4.301-10.018-6.72-15.751-8.74-23.232-8.187-47.353-11.284-71.804-12.652-37.225-2.082-74.351-2.076-111.02 5.78-12.897 2.763-25.838 5.844-37.467 14.64zm123.43-141.64c0.015 4.678 0.046 9.357 0.037 14.035-5e-3 2.566 0.825 4.284 3.75 4.427 3.102 0.152 4.595-1.308 4.631-4.304 0.063-5.123 0.104-10.248 0.051-15.371-0.03-2.802 0.669-6.11-3.887-6.247-4.752-0.142-4.654 3.056-4.582 7.46zm-12.549 2.207c-0.026-1.332-0.015-2.666-0.087-3.996-0.145-2.673 0.045-5.639-3.908-5.657-4.124-0.018-3.645 3.06-3.668 5.681-0.045 5.108-0.01 10.216 8e-3 15.324 9e-3 2.562 0.106 5.093 3.707 4.982 3.35-0.103 3.842-2.439 3.885-5.07 0.053-3.33 0.064-6.661 0.063-11.264zm9.076-33.581c-7.477-0.255-10.58 2.483-11.454 10.47 5.859 0.267 11.685 1.111 17.847-0.756-0.75-4.304-2.134-7.372-6.393-9.714z" fill="#2F4156"/>
<path d="m861.04 427.86c-6.12-0.815-6.867 2.512-6.845 6.909 0.077 15.705 0.097 31.411-0.034 47.115-0.077 9.178-2.542 13.409-7.473 12.665-7.35-1.109-6.957-7.184-7.004-12.57-0.141-16.153-0.3-32.309-0.107-48.46 0.066-5.606-1.088-8.572-7.595-8.954-6.03-0.353-12.172-0.027-18.089-1.08-6.843-1.218-7.827 1.714-7.716 7.599 0.317 16.821 0.118 33.652 0.114 50.48-1e-3 2.018 0.057 4.047-0.111 6.054-0.342 4.101-2.516 6.876-6.707 7.041-3.981 0.157-6.069-2.658-6.806-6.235-0.491-2.386-0.484-4.899-0.494-7.356-0.065-17.275-0.196-34.552-0.028-51.826 0.047-4.811-1.33-7.046-6.487-6.738-5.589 0.333-11.225 0.294-16.819 4e-3 -5.205-0.27-7.139 1.663-7.067 6.993 0.251 18.394 0.069 36.794 0.163 55.191 0.025 5.084-0.363 10.147-6.878 10.012-6.1-0.126-7.252-4.885-7.24-10.093 0.042-17.5 0.021-35-0.033-52.5-8e-3 -2.645 0.482-5.373-0.96-8.336-9.451-0.712-18.968 0.432-28.477 1.45-4.247 0.455-3.62 3.902-3.626 6.74-0.034 16.378-9e-3 32.756-0.012 49.135-1e-3 2.018 0.067 4.047-0.103 6.054-0.351 4.145-2.749 6.74-6.803 7.045-4.061 0.305-6.019-2.652-6.852-6.152-0.51-2.146-0.489-4.446-0.496-6.678-0.051-15.481-0.286-30.967 0.059-46.44 0.136-6.15-2.07-8.202-7.88-7.097-2.413 0.459-4.877 0.647-7.3 1.061-15.702 2.682-15.65 2.691-15.473 18.946 0.125 11.441 0.097 22.884 0.116 34.327 3e-3 1.567 0.081 3.172-0.211 4.695-0.815 4.253-3.309 7.046-7.82 6.736-4.335-0.297-6.035-3.322-6.037-7.463-7e-3 -14.359-0.058-28.718-0.035-43.077 7e-3 -4.504-0.165-8.56-3.552-12.447-3.635-4.171-1.419-8.681 4.697-10.421 11.225-3.193 22.784-4.901 34.315-6.381 35.398-4.544 70.969-6.596 106.65-5.28 32.472 1.198 64.785 4.244 96.676 10.804 9.701 1.996 11.276 5.992 5.624 14.155-1.433 2.069-1.245 4.243-1.253 6.439-0.054 14.135-0.039 28.269-0.075 42.404-6e-3 2.014 0.069 4.073-0.304 6.033-0.694 3.646-2.805 6.348-6.751 6.268-3.847-0.078-6.102-2.619-6.727-6.344-0.331-1.974-0.274-4.024-0.279-6.039-0.033-15.032-0.151-30.066 0.016-45.096 0.049-4.429-1.348-6.536-5.991-6.894-5.789-0.447-11.527-1.552-17.877-2.398z" fill="#2F4156"/>
<path d="m449.9 268.02c-4.731-20.826 7.732-41.696 28.311-47.405l182.7-50.693c21.79-6.046 44.256 7.16 49.573 29.139l16.54 68.376 4.305 21.055c4.234 20.703-8.367 41.127-28.769 46.632l-96.684 26.087-73.976 23.39c-27.886 8.817-57.352-8.078-63.831-36.598l-18.17-79.983z" fill="#fff"/>
<path d="m663.81 162.52c6.905-1.885 13.682-3.609 20.61-4.787 8.77-1.49 16.309 0.195 21.959 7.494 2.702 3.49 3.81 7.708 4.837 11.897 3.246 13.248 5.88 26.638 9.262 39.856 3.794 14.824 6.981 29.782 9.813 44.818 0.091 0.481 0.152 0.974 0.17 1.463 0.105 2.895-1.112 4.655-3.48 5.065-2.365 0.41-4.373-0.983-5.014-3.827-1.93-8.572-3.642-17.194-5.633-25.751-2.843-12.215-5.896-24.38-8.786-36.584-1.883-7.954-3.622-15.942-5.465-23.905-0.346-1.494-0.82-2.967-1.338-4.412-1.867-5.209-6.532-7.966-12.038-7.407-5.66 0.574-11.131 1.96-16.598 3.427-28.301 7.594-56.191 16.564-84.177 25.21-28.81 8.901-57.824 17.059-87.127 24.188-11.652 2.835-23.227 5.982-34.938 8.585-3.544 0.788-7 1.896-10.002 4.128-5.867 4.362-7.865 10.241-6.717 17.249 2.217 13.54 5.823 26.776 9.089 40.081 4.41 17.969 8.058 36.099 11.807 54.21 2.653 12.813 5.396 25.608 8.198 38.389 1.988 9.063 8.105 12.756 17.399 10.385 9.43-2.405 18.637-5.555 27.709-9.078 16.541-6.424 33.454-11.732 50.402-16.941 5.765-1.772 11.539-3.515 17.31-5.267 0.706-0.214 1.41-0.463 2.134-0.588 2.366-0.409 4.286 0.671 5.026 2.77 0.776 2.2 4e-3 4.466-2.187 5.468-1.946 0.891-4.039 1.48-6.096 2.107-19.604 5.983-39.198 11.998-58.423 19.14-10.212 3.794-20.355 7.799-30.959 10.419-4.845 1.197-9.74 2.294-14.759 1.098-9.115-2.174-14.42-8.064-16.338-17.108-4.336-20.439-8.622-40.889-12.949-61.33-3.54-16.722-7.729-33.293-11.624-49.933-1.834-7.836-4.014-15.627-4.888-23.636-1.193-10.926 2.196-20.501 13.86-26.864 5.196-2.835 10.987-3.907 16.655-5.32 31.204-7.781 62.503-15.201 93.285-24.584 23.134-7.052 46.258-14.136 69.405-21.141 10.129-3.064 20.307-5.967 30.606-8.984z" fill="#2F4156"/>
<path d="m562.41 289.86c-6.991 4.091-14.32 4.339-21.937 2.919-4.168-0.776-8.232-2.131-12.472-2.447-6.659-0.497-12.376 2.117-17.789 5.657-6.267 4.098-12.782 7.674-20.206 9.259-1.083 0.231-2.162 0.477-3.281 0.336-2.127-0.268-3.416-1.553-3.725-3.705-0.258-1.798 0.715-3.499 2.49-4.315 0.39-0.179 0.799-0.35 1.217-0.431 6.74-1.321 12.545-4.636 18.123-8.451 6.054-4.14 12.637-6.893 20.028-7.389 3.408-0.229 6.756 0.346 10.044 1.181 4.177 1.062 8.37 2.028 12.682 2.295 3.405 0.211 6.64-0.55 9.529-2.361 3.862-2.42 7.631-4.991 11.445-7.489 4.751-3.111 10.073-4.87 15.464-6.432 2.2-0.638 4.365 0.586 5.207 2.731 0.811 2.065 0.059 4.305-1.883 5.422-0.633 0.365-1.333 0.669-2.042 0.84-6.165 1.488-11.518 4.581-16.61 8.238-2 1.436-4.108 2.72-6.284 4.142z" fill="#2F4156"/>
<path d="m573.6 234.34c1.464 2.882 1.025 4.824-1.456 6.492-4.905 3.297-9.768 6.677-15.124 9.224-5.066 2.408-10.413 3.635-16.049 3.663-4.068 0.02-8.128-0.092-12.179-0.423-8.677-0.71-16.73 1.362-24.339 5.415-7.625 4.062-15.4 7.744-23.907 9.606-1.852 0.405-3.587 0.27-4.875-1.329-1.141-1.418-1.365-2.999-0.573-4.668 0.525-1.109 1.347-1.938 2.558-2.239 8.806-2.194 16.74-6.431 24.776-10.456 8.671-4.342 17.909-6.057 27.559-5.339 2.335 0.174 4.671 0.167 6.999 0.355 7.726 0.625 14.737-1.393 21.201-5.576 3.05-1.974 6.13-3.905 9.242-5.779 2.383-1.436 4.135-1.116 6.167 1.054z" fill="#2F4156"/>
<path d="m515.82 332.74c-6.209 1.98-10.834 6.008-15.203 10.406-0.39 0.393-0.726 0.843-1.132 1.216-1.833 1.685-4.194 1.863-5.875 0.467-1.813-1.507-2.304-4.243-0.628-6.145 6.59-7.482 14.09-13.697 24.366-15.222 4.356-0.647 8.699 0.349 12.984 1.199 3.047 0.604 6.108 0.743 9.182 0.432 4.103-0.417 7.428-2.435 10.344-5.236 0.89-0.855 1.797-1.738 3.064-1.97 1.686-0.31 3.197 0.048 4.285 1.493 1.15 1.528 1.243 3.712 0.146 5.382-1.632 2.483-4.054 4.128-6.506 5.651-5.041 3.131-10.638 3.907-16.476 3.68-4.207-0.163-8.26-1.214-12.384-1.857-2.041-0.318-4.046-0.083-6.167 0.504z" fill="#2F4156"/>
<path d="m678.81 181.89c-1.598 1.236-3.035 1.696-5.171 1.643-2.35-0.059-3.429 0.339-5.109 1.998-1.751 1.657-2.47 1.922-3.524 1.329-3.091-1.777-6.609-0.731-8.468 2.41-0.595 0.977-0.88 0.97-2.56-0.205-2.732-1.91-6.457-1.082-8.31 1.777-2.148 3.276-1.927 5.832 0.502 8.443 1.389 1.452 1.934 2.457 1.493 3.013-2.351 2.846-1.54 7.471 1.686 9.536 1.682 1.104 1.886 1.534 1.289 2.582-1.34 2.305-0.404 7.642 1.688 9.465 1.672 1.53 1.804 1.958 1.043 3.923-1.296 3.368-1.044 4.721 1.107 7.041 2.639 2.758 5.202 2.822 7.977 0.128 1.751-1.657 2.47-1.922 3.524-1.329 2.669 1.554 5.391 0.984 7.806-1.577 1.905-2.078 2.481-2.347 3.605-1.681 2.53 1.409 5.108 0.906 7.589-1.441 2.335-2.208 2.477-2.205 4.519-1.233 2.603 1.34 5.323 0.841 7.731-1.437 2.7-2.554 2.413-5.324-0.86-8.381-2.019-1.893-2.496-2.755-1.975-3.663 0.372-0.628 0.635-2.605 0.539-4.45-0.142-2.908-0.41-3.553-2.373-4.877-1.541-1.03-2.092-1.823-1.718-2.522 0.228-0.561 0.564-2.608 0.61-4.448 0.072-2.903-0.263-3.762-1.796-5.146-1.672-1.53-1.736-1.815-0.957-4.488 1.01-3.375 0.075-5.878-2.67-7.222-2.676-1.271-4.891-1.043-7.217 0.812z" fill="#2F4156"/>
<path d="m662.17 349.08-70.543 21.163-3.221-8.434 24.537-7.361s31.527-10.144 46.313-13.649c12.149-2.879 24.384-6.901 33.278-9.048 14.569-3.987 18.982-4.644 28.064-7.974 4.754-1.743 9.201-5.828 9.201-13.802 0-3.374-2.3-17.943-2.3-17.943l-9.355-45.239 8.588-2.914 10.275 46.773s3.301 17.483 1.84 24.997c-1.073 5.521-2.147 10.582-11.195 14.262-8.966 3.648-11.792 4.431-20.466 6.835l-0.236 0.066c-30.978 8.588-44.78 12.268-44.78 12.268z" fill="#2F4156"/>
<path d="m182.75 378.79-95.769 73.176-39.792-19.896-33.384-31.024 137.58-60.362 49.234-49.908-43.501-19.221-43.164-36.082-11.465-28.664-34.396-36.082-5.7327-33.384-19.896-26.978-9.4421-43.838 173.33 88.688 2.361-107.91 13.489-31.024 98.804 102.51 13.152 51.931 72.501-46.199 39.117 7.082 25.629 29.675 47.548 34.396-51.932 11.128-31.024 41.815-40.466 92.06-56.99 47.211-72.501 7.419-83.293-16.524z" fill="#FFD44D"/>
<mask id="a" x="0" y="0" width="592" height="487" style="mask-type:alpha" maskUnits="userSpaceOnUse">
<path d="m459.94 226.37 4.384-3.709 19.222-7.082 2.36 4.384 13.489-3.71-3.372-5.732 17.198-4.215 27.314-13.658 50.92-47.547-13.152-39.455-359.3-105.64-106.5 20.5-96 22.5-16 360.07 29 64.431 183.5 19.5 227.38-19.5-13.489-64.431 13.489-152.42 19.558-24.28z" fill="#D9D9D9"/>
</mask>
<g fill="#2F4156" mask="url(#a)">
<path d="m214.52 7.5582c-1.798 1.9783-8.363 17.355-10.791 25.359-2.697 9.1723-3.147 30.484-0.809 40.376l1.798 7.5536-2.068 4.5862c-4.406 10.161-5.395 16.096-5.305 33.362 0 12.409 0.359 17.175 1.438 20.503 0.81 2.338 1.169 4.226 0.9 4.046-0.36-0.18-11.241-5.665-24.28-12.229-28.596-14.478-59.35-30.935-105.48-56.473-19.064-10.611-35.7-19.244-36.869-19.244-2.5179 0-5.7552 2.0683-7.104 4.4962-1.1691 2.2481 0.4496 24.819 2.338 31.923 2.9675 11.33 10.971 25.808 20.323 36.69 3.7769 4.316 4.3164 5.395 3.4172 6.564-1.5288 1.799-0.5396 14.118 1.7085 22.122 4.766 16.456 20.143 37.678 34.441 47.39 5.7552 3.867 5.7552 3.957 7.2839 10.341 3.3272 14.028 13.938 30.664 26.528 41.545 15.287 13.129 38.128 26.078 59.71 33.992l9.622 3.507-3.597 4.136c-4.766 5.486-17.176 16.726-27.787 25.179-22.931 18.345-47.66 30.574-117.8 58.271-18.075 7.104-33.812 13.669-35.071 14.568-3.1474 2.338-4.1365 5.485-2.6078 8.723 2.2481 4.676 35.7 31.383 50.448 40.286 8.5429 5.126 18.345 9.712 25.269 11.87 4.4962 1.349 5.935 1.439 10.341 0.539 6.4746-1.348 11.331-4.766 24.909-17.355 30.395-28.416 55.754-48.469 66.455-52.516 3.417-1.349 4.945-1.439 8.003-0.719 7.733 1.888 29.855 7.823 30.215 8.003 0.539 0.45-14.478 24.549-15.468 24.639-0.089 0-7.014 1.259-15.467 2.608-13.758 2.338-15.467 2.878-17.265 5.036-2.698 3.057-2.608 6.295 0.18 8.992 2.608 2.608 2.518 2.608 13.578 0.9 4.766-0.81 9.263-1.349 10.072-1.169 0.989 0.179-0.09 1.798-3.417 5.485-5.216 5.755-12.949 11.42-19.244 14.028-6.744 2.968-8.723 8.183-4.586 12.23 4.586 4.676 12.23 1.978 24.909-8.723 9.082-7.733 14.478-14.028 19.154-22.751 1.888-3.507 5.755-9.712 8.543-13.938 2.787-4.226 7.104-11.151 9.532-15.467 2.518-4.496 4.946-7.913 5.755-7.913 0.719 0.09 5.395 0.719 10.431 1.618l8.993 1.529-4.856 13.129-4.946 13.219-12.05 5.216c-12.59 5.395-15.557 7.733-15.557 11.959 0 3.328 3.057 6.385 6.295 6.385 1.438 0 4.946-0.989 7.733-2.248 2.788-1.259 5.216-2.248 5.396-2.248 0.629 0-6.205 11.42-8.004 13.309-1.079 1.169-4.676 3.687-7.913 5.665-3.327 1.888-6.205 4.136-6.564 4.946-1.17 2.967-0.54 6.384 1.528 8.273 3.327 3.057 7.554 2.608 13.849-1.619 12.949-8.543 19.603-19.513 29.944-49.009 1.979-5.485 4.856-13.308 6.475-17.535l3.057-7.643 14.748-0.54c33.002-1.349 57.642-9.262 82.101-26.348 16.816-11.69 27.247-22.301 38.578-39.117 11.6-17.266 19.064-34.981 27.696-65.735 1.979-7.194 4.407-15.287 5.306-17.985l1.619-4.946 0.989 3.597c0.539 1.979 1.798 7.014 2.877 11.241 1.529 6.115 10.612 40.376 25.629 96.669 8.992 33.452 13.219 47.84 14.568 48.829 2.697 1.978 7.823 1.169 29.855-4.766 11.87-3.238 31.473-8.453 43.523-11.78 36.869-9.892 52.156-14.029 108.09-29.046 29.675-8.003 55.664-15.197 57.642-15.917 2.608-0.899 4.136-2.158 4.766-3.776 1.079-2.608 1.888 0.449-38.578-150.71-7.463-28.146-8.093-29.315-13.848-29.315-1.529 0-4.227 0.449-5.935 0.989-3.417 0.989-46.311 12.679-124.01 33.632l-48.829 13.219-2.158-2.249c-2.518-2.787-3.507-2.338 12.05-5.575 12.229-2.518 13.848-3.147 15.826-6.025 2.159-3.057 1.709-5.485-1.438-8.543-4.676-4.406-32.103-24.279-37.409-26.977-3.957-2.158-5.036-3.237-6.924-7.374-7.824-16.996-24.46-30.934-42.714-35.79-8.633-2.338-27.697-2.068-37.319 0.54-13.848 3.687-21.042 8.273-40.916 26.078-6.204 5.575-12.319 10.881-13.578 11.87l-2.428 1.709-0.63-6.565c-2.248-24.1-8.902-37.948-29.405-61.418-17.355-19.873-62.318-64.386-82.82-82.101-4.946-4.2264-9.892-5.0358-12.59-2.0683zm52.876 63.487c25.089 25.089 41.275 43.344 47.12 53.055 6.565 10.881 9.982 23.291 9.982 35.88 0 13.669 0.539 12.68-13.938 23.471l-12.86 9.442-6.115-4.047c-5.485-3.597-60.519-31.384-68.612-34.531-2.428-0.989-3.597-2.338-5.575-6.654-4.137-8.903-5.665-18.795-5.036-32.463 0.36-6.385 0.899-12.949 1.259-14.568l0.719-2.8775 6.295 7.2835c3.507 4.047 9.442 10.162 13.399 13.489 8.093 7.014 11.42 7.823 15.377 3.867 4.316-4.227 3.417-6.385-8.363-18.165-5.845-5.845-12.41-13.219-14.568-16.456-10.251-15.197-12.859-32.732-7.554-51.077 2.968-10.611 1.709-10.611 13.219-0.0899 5.486 5.0358 21.402 20.593 35.251 34.441zm-203.05 19.064c55.933 31.204 101.34 54.854 152.69 79.493 41.635 19.963 60.609 29.585 70.141 35.79 7.554 4.856 18.525 13.938 23.021 18.974 2.698 3.058 3.777 3.687 6.564 3.687 2.338 0 3.957-0.629 5.486-2.248 4.406-4.316 2.338-9.532-7.284-18.255l-5.755-5.305 4.766-3.148c7.284-4.855 44.243-34.71 53.235-42.983 10.701-9.892 15.917-13.759 22.931-16.996 8.722-4.047 15.557-5.576 25.628-5.576 16.097-0.089 25.898 3.777 36.51 14.388 10.521 10.522 14.477 20.233 14.567 35.61 0 11.511-2.697 18.075-9.891 24.28-18.255 15.557-29.226 31.654-35.61 52.156-13.04 41.815-17.985 53.865-28.686 69.692-16.636 24.639-40.197 42.984-65.735 51.347-14.028 4.586-26.798 6.384-45.142 6.384-23.201 0-36.42-2.248-78.774-13.309-16.007-4.136-16.996-4.316-21.132-3.237-12.77 3.327-37.139 21.492-70.951 52.786-19.873 18.434-21.492 19.603-25.898 19.064-1.8884-0.27-6.9241-2.158-11.151-4.137l-7.5536-3.687 9.2622-6.294c15.827-10.701 26.258-19.154 27.157-21.852 1.799-4.946-3.2372-9.802-8.6327-8.453-1.2589 0.36-11.061 6.655-21.762 14.118l-19.604 13.489-2.7877-1.978c-6.3846-4.407-24.01-18.075-24.01-18.615 0-0.269 3.1473-1.708 7.0141-3.147 10.611-3.957 50.448-20.323 63.577-26.168 28.416-12.5 55.034-27.157 71.31-39.297 4.856-3.507 15.647-13.399 24.28-22.122l15.557-15.646 9.622 2.338c9.532 2.338 23.56 5.035 26.348 5.035 2.877 0 6.205-4.496 6.205-8.273 0-4.945-2.968-7.553-9.712-8.363-7.914-0.989-32.013-7.194-45.052-11.69-39.927-13.668-67.264-32.552-80.663-55.663-2.248-3.957-2.338-4.406-0.809-3.777 4.047 1.529 17.355 5.126 20.862 5.665 3.328 0.45 4.047 0.18 6.475-2.248 1.888-1.798 2.788-3.597 2.788-5.395 0-3.148-3.058-7.374-5.396-7.374-2.518 0-19.334-6.025-27.697-9.982-14.388-6.654-23.92-15.107-33.182-29.315-5.2156-8.003-7.104-11.87-8.8126-18.435l-1.169-4.136 9.6219 6.295c12.589 8.273 24.369 14.208 28.416 14.208 4.226 0 6.744-2.608 6.744-7.014 0-4.137-1.079-5.216-8.902-9.173-31.834-15.916-54.225-39.566-60.43-63.666-0.8993-3.6869-1.7086-7.7334-1.7086-8.9924 0-2.1582 0.0899-2.1582 2.2481-0.7194 1.259 0.8093 10.611 6.1149 20.862 11.87zm426.51 95.859c4.676 3.328 7.554 5.935 6.924 6.205-1.618 0.899-15.916 3.867-16.366 3.417-0.18-0.269 0-3.237 0.54-6.654 0.449-3.417 0.629-6.744 0.449-7.374-0.809-1.888 0.18-1.439 8.453 4.406zm181.92 5.216c1.169 4.676 10.342 39.027 20.413 76.256 9.982 37.319 17.985 67.893 17.805 68.073-0.449 0.45 0.27 0.27-120.32 32.822-74.637 20.233-95.23 25.629-95.679 25.089-0.27-0.18-4.317-14.927-9.083-32.732-25.988-96.759-31.833-119.6-31.024-120.41 1.169-1.169 5.306-2.338 180.3-49.549 18.794-5.035 34.441-8.992 34.801-8.632 0.359 0.269 1.618 4.406 2.787 9.082zm-190.46 22.481c0.9 0.989 1.439 1.979 1.259 2.068-0.539 0.45-18.794 6.925-19.513 6.925-0.27 0 1.438-2.069 3.866-4.497 6.025-6.114 11.421-7.733 14.388-4.496z"/>
<path d="m427.91 159.98c-8.363 2.878-9.712 16.187-2.248 22.032 3.417 2.697 10.881 2.787 14.298 0.09 2.967-2.338 5.036-6.205 5.036-9.622 0-3.957-3.687-10.072-7.194-11.96-3.597-1.979-5.486-2.068-9.892-0.54z"/>
<path d="m571.79 287.4c-3.237 0.9-19.963 5.396-37.318 9.982-17.266 4.496-32.193 8.903-33.003 9.622-2.428 2.068-2.158 7.464 0.45 9.892 1.169 1.079 3.057 1.978 4.136 1.978 2.248 0 72.569-18.255 76.796-19.963 4.676-1.799 5.665-7.464 1.978-11.061-2.608-2.698-4.946-2.698-13.039-0.45z"/>
<path d="m558.12 325.89c-30.125 8.183-46.131 12.859-47.39 14.028-1.978 1.799-2.518 5.845-0.989 8.633 2.248 4.226 3.597 4.047 47.57-7.734 22.931-6.114 43.793-11.69 46.401-12.499 5.126-1.439 7.643-3.867 7.643-7.374 0-2.338-3.327-6.205-5.845-6.834-0.989-0.27-22.301 5.036-47.39 11.78z"/>
</g>
</svg>
